<?xml version="1.0" encoding="UTF-8" standalone="no"?>
<!-- Created with Inkscape (http://www.inkscape.org/) -->

<svg
   version="1.1"
   id="svg2"
   width="164.48"
   height="106.94667"
   viewBox="0 0 164.48 106.94667"
   sodipodi:docname="black-logomark-vertical.eps"
   xmlns:inkscape="http://www.inkscape.org/namespaces/inkscape"
   xmlns:sodipodi="http://sodipodi.sourceforge.net/DTD/sodipodi-0.dtd"
   xmlns="http://www.w3.org/2000/svg"
   xmlns:svg="http://www.w3.org/2000/svg">
  <defs
     id="defs6">
    <clipPath
       clipPathUnits="userSpaceOnUse"
       id="clipPath18">
      <path
         d="m 386.285,94.668 c -2.949,0 -6.238,-1.6992 -9.883,-5.0899 -3.632,-3.3945 -7.039,-7.8984 -10.222,-13.5156 -3.176,-5.6133 -5.598,-11.5898 -7.258,-17.9258 8.75,2.9844 15.019,5.8789 18.801,8.6875 3.406,2.6289 6.054,5.8203 7.949,9.5821 1.883,3.75 2.832,7.8046 2.832,12.1484 0,2.4531 -0.188,4.082 -0.559,4.8906 z m 13.274,-6.375 c 0,-7.3477 -4.192,-13.7735 -12.579,-19.3008 -8.39,-5.5156 -17.968,-10 -28.75,-13.4453 -1.007,-4.5235 -1.515,-8.9141 -1.515,-13.1758 0,-8.6875 3.176,-13.0352 9.531,-13.0352 7.93,0 15.02,4.5313 21.289,13.586 l 2.207,-1.086 c -2.949,-4.9804 -6.933,-9.2695 -11.953,-12.8437 -5.019,-3.5703 -10.293,-5.3594 -15.828,-5.3594 -5.715,0 -10.176,1.6328 -13.398,4.8906 -3.235,3.2539 -4.844,8.0079 -4.844,14.2579 0,6.8867 2.051,14.6523 6.152,23.2929 4.102,8.6524 9.649,16.0039 16.66,22.0781 7,6.0665 14.598,9.1055 22.801,9.1055 2.949,0 5.391,-0.7734 7.324,-2.3164 1.934,-1.543 2.903,-3.7578 2.903,-6.6484 z m -66.133,-40.7539 -3.457,-9.9219 c -3.313,-9.3242 -8.887,-13.9844 -16.719,-13.9844 -6.457,0 -9.68,2.8008 -9.68,8.418 0,2.7148 0.743,6.25 2.219,10.5937 l 13.125,38.8477 c 0.918,2.5391 1.387,4.8086 1.387,6.8008 0,3.0742 -1.477,4.6054 -4.426,4.6054 -3.406,0 -7.07,-2.0976 -10.984,-6.3046 -3.918,-4.211 -7.864,-10.129 -11.817,-17.7266 -3.965,-7.6055 -7.656,-16.4336 -11.066,-26.4961 l -4.969,-16.8359 h -12.023 l 27.363,90.5978 c 0.148,0.488 0.637,2.121 1.476,4.875 0.196,0.64 0.907,2.957 2.137,6.953 l 12.844,4.031 -0.293,-1.054 c -2.922,-9.805 -9.367,-31.395 -19.348,-64.7935 4.981,11.0508 9.953,18.9922 14.934,23.836 4.969,4.8554 10.41,7.2773 16.309,7.2773 7.46,0 11.191,-3.4492 11.191,-10.332 0,-2.8945 -0.695,-6.2891 -2.07,-10.1875 L 316.148,37.0781 c -0.742,-2.1758 -1.101,-3.8945 -1.101,-5.164 0,-2.168 1.101,-3.2618 3.308,-3.2618 1.848,0 3.625,1.0274 5.325,3.0586 1.707,2.0391 3.476,5.6407 5.32,10.8008 l 1.797,5.0274 z m -98.613,-10.461 c -0.274,-1.082 -0.411,-2.0781 -0.411,-2.9843 0,-1.8204 0.555,-3.1758 1.661,-4.0743 1.101,-0.9101 2.527,-1.3672 4.277,-1.3672 2.305,0 4.453,0.9766 6.426,2.918 1.98,1.9531 3.945,5.5078 5.879,10.6641 l 1.933,5.3047 h 2.625 l -2.898,-8.5547 c -1.934,-5.6172 -4.446,-9.5821 -7.539,-11.8946 -3.086,-2.3046 -6.887,-3.457 -11.399,-3.457 -4.148,0 -7.234,0.9961 -9.258,2.9883 -2.031,1.9922 -3.046,4.7578 -3.046,8.2812 0,2.3555 0.421,4.9415 1.25,7.7422 l 14.648,49.9922 H 226.52 l 0.695,2.7149 h 12.441 c 2.528,8.5664 4.188,14.1794 4.969,16.8434 l 12.961,3.938 c -0.813,-2.766 -2.773,-9.688 -5.91,-20.7814 h 18.242 l -0.41,-2.7149 h -18.66 z m -59.426,60.1797 c 2.492,0 4.465,-0.7344 5.937,-2.1797 1.477,-1.4453 2.219,-3.3008 2.219,-5.5664 0,-2.7148 -0.969,-5.0312 -2.902,-6.9336 -1.934,-1.8945 -4.2,-2.8515 -6.778,-2.8515 -1.66,0 -2.988,0.4297 -4.004,1.289 -1.015,0.8711 -1.523,2.0586 -1.523,3.6016 0,2.082 0.559,3.8516 1.66,5.293 1.106,1.457 2.629,2.5898 4.563,3.3984 l -1.524,0.5469 c -4.972,0 -10.383,-5.2696 -16.242,-15.8282 -5.848,-10.5468 -11.355,-24.4726 -16.512,-41.7656 l -2.765,-10.7265 h -12.02 l 16.582,58.2734 c 0.645,1.9922 0.965,3.75 0.965,5.293 0,2.082 -0.965,3.125 -2.898,3.125 -2.032,0 -3.899,-1.0664 -5.598,-3.1953 -1.707,-2.129 -3.438,-5.6797 -5.184,-10.6641 l -1.797,-5.0156 h -2.628 l 3.457,9.9101 c 3.32,9.3281 8.886,13.9961 16.718,13.9961 5.254,0 7.883,-2.6289 7.883,-7.8828 0,-2.5391 -0.644,-6.25 -1.933,-11.1445 l -4.426,-17.1094 c 4.98,13.125 9.648,22.4336 14.035,27.9102 4.375,5.4804 9.277,8.2265 14.715,8.2265 z M 93.6406,94.5313 c -4.6992,0 -9.1523,-2.9375 -13.3398,-8.8282 -4.1914,-5.8789 -7.5586,-13.2422 -10.0899,-22.0703 -2.539,-8.8281 -3.7968,-17.3164 -3.7968,-25.4687 0,-4.0703 0.6445,-7.0625 1.9336,-8.9649 1.289,-1.9023 3.2695,-2.8515 5.9375,-2.8515 4.707,0 9.1484,2.9375 13.3398,8.8281 4.1875,5.8867 7.5586,13.2422 10.0859,22.0703 2.5391,8.8281 3.8011,17.3242 3.8011,25.4687 0,4.0821 -0.645,7.0704 -1.9339,8.9649 -1.289,1.9062 -3.2734,2.8516 -5.9375,2.8516 z M 54.5273,44.9609 c 0,7.1485 1.6133,14.8243 4.836,23.0157 3.2226,8.1953 7.8789,15.1289 13.9531,20.7851 6.0859,5.6641 13.1367,8.4961 21.1524,8.4961 5.8982,0 10.5272,-1.7969 13.8862,-5.3711 3.36,-3.5781 5.051,-8.8984 5.051,-15.957 0,-7.1602 -1.621,-14.8359 -4.843,-23.0313 C 105.34,44.707 100.691,37.7813 94.6055,32.1172 88.5234,26.4648 81.4727,23.6328 73.4531,23.6328 c -5.8867,0 -10.5156,1.7891 -13.8867,5.3594 -3.3594,3.5742 -5.0391,8.8984 -5.0391,15.9687 z m 4.9024,86.7851 c 4.0547,0 7.2578,-0.894 9.6094,-2.715 2.3437,-1.804 3.5273,-4.121 3.5273,-6.922 0,-2.351 -0.8984,-4.504 -2.6953,-6.457 -1.7969,-1.941 -3.9844,-2.918 -6.5742,-2.918 -1.7461,0 -3.125,0.411 -4.1406,1.219 -1.0157,0.82 -1.4727,1.953 -1.3868,3.399 0,2.179 0.7149,4.054 2.1485,5.636 1.4258,1.59 3.3398,2.742 5.7343,3.465 0,0.813 -0.625,1.567 -1.8671,2.246 -1.2383,0.676 -2.7422,1.02 -4.4922,1.02 -2.7617,0 -5.4375,-1.184 -8.0157,-3.535 -1.9335,-1.719 -3.5468,-4.457 -4.8359,-8.215 -1.2891,-3.758 -2.8984,-9.309 -4.8437,-16.641 l -1.5118,-5.8397 v -0.1367 h 16.3086 l -0.832,-2.7149 H 39.2539 L 14.5195,1.89453 C 9.53906,1.71875 5.38672,1.08594 2.07813,0 L 27.2344,92.6367 H 14.793 l 0.8281,2.7149 h 12.4414 v 0.1367 c 2.0234,7.4217 4.1211,13.4647 6.2813,18.1327 2.1679,4.66 4.7734,8.438 7.8125,11.34 2.1171,2.082 4.7265,3.738 7.8125,4.961 3.0859,1.223 6.2382,1.824 9.4609,1.824 z"
         clip-rule="evenodd"
         id="path16" />
    </clipPath>
    <clipPath
       clipPathUnits="userSpaceOnUse"
       id="clipPath24">
      <path
         d="m -7078.6,-4631.45 h 10080 v 14320 h -10080 z"
         id="path22" />
    </clipPath>
    <clipPath
       clipPathUnits="userSpaceOnUse"
       id="clipPath34">
      <path
         d="m 1214.91,333.547 c -2.59,3.687 -6.06,6.394 -10.4,8.113 -4.34,1.719 -8.91,2.578 -13.7,2.578 -2.85,0 -5.61,-0.324 -8.25,-0.957 -2.66,-0.636 -5.06,-1.648 -7.2,-3.054 -2.14,-1.399 -3.86,-3.215 -5.15,-5.442 -1.3,-2.226 -1.94,-4.875 -1.94,-7.93 0,-4.582 1.62,-8.085 4.85,-10.507 3.24,-2.414 7.26,-4.524 12.05,-6.297 4.8,-1.789 10.04,-3.508 15.74,-5.156 5.71,-1.665 10.95,-3.95 15.75,-6.875 4.79,-2.93 8.81,-6.821 12.05,-11.665 3.24,-4.832 4.86,-11.265 4.86,-19.285 0,-7.257 -1.37,-13.593 -4.08,-19.004 -2.73,-5.41 -6.39,-9.902 -10.99,-13.464 -4.6,-3.567 -9.94,-6.243 -16.03,-8.032 -6.09,-1.773 -12.5,-2.675 -19.24,-2.675 -8.56,0 -16.78,1.41 -24.68,4.21 -7.91,2.801 -14.71,7.508 -20.41,14.129 l 18.47,17.579 c 2.98,-4.461 6.89,-7.926 11.76,-10.411 4.85,-2.488 10.01,-3.726 15.45,-3.726 2.85,0 5.7,0.379 8.55,1.148 2.84,0.766 5.44,1.906 7.77,3.442 2.33,1.519 4.21,3.464 5.64,5.82 1.42,2.352 2.14,5.066 2.14,8.125 0,4.961 -1.62,8.777 -4.87,11.453 -3.24,2.676 -7.25,4.934 -12.05,6.777 -4.79,1.856 -10.04,3.606 -15.74,5.254 -5.7,1.66 -10.95,3.914 -15.74,6.785 -4.8,2.864 -8.81,6.68 -12.05,11.458 -3.23,4.777 -4.86,11.179 -4.86,19.199 0,7.004 1.46,13.054 4.37,18.144 2.92,5.098 6.74,9.324 11.47,12.703 4.73,3.379 10.14,5.891 16.22,7.551 6.1,1.649 12.32,2.481 18.67,2.481 7.25,0 14.28,-1.082 21.08,-3.25 6.81,-2.161 12.93,-5.727 18.37,-10.696 z m -199.14,29.031 h 91.14 v -21.777 h -66.66 v -33.235 h 63.16 v -21.777 h -63.16 v -36.68 h 70.17 v -21.773 h -94.65 z m -51.641,-31.711 c -5.051,5.356 -9.941,8.918 -14.668,10.696 -4.738,1.789 -9.492,2.675 -14.289,2.675 -7.129,0 -13.574,-1.242 -19.336,-3.718 -5.77,-2.493 -10.723,-5.93 -14.871,-10.325 -4.141,-4.394 -7.356,-9.511 -9.621,-15.371 -2.266,-5.859 -3.399,-12.16 -3.399,-18.918 0,-7.254 1.133,-13.933 3.399,-20.047 2.265,-6.113 5.48,-11.394 9.621,-15.859 4.148,-4.453 9.101,-7.961 14.871,-10.508 5.762,-2.539 12.207,-3.816 19.336,-3.816 5.566,0 10.976,1.304 16.23,3.914 5.246,2.617 10.137,6.789 14.668,12.512 l 20.215,-14.133 c -6.219,-8.41 -13.797,-14.524 -22.734,-18.34 -8.946,-3.82 -18.465,-5.734 -28.574,-5.734 -10.625,0 -20.372,1.691 -29.247,5.07 -8.878,3.371 -16.523,8.144 -22.941,14.324 -6.406,6.176 -11.426,13.598 -15.059,22.246 -3.621,8.664 -5.437,18.281 -5.437,28.852 0,10.816 1.816,20.664 5.437,29.508 3.633,8.847 8.653,16.398 15.059,22.636 6.418,6.242 14.063,11.047 22.941,14.426 8.875,3.367 18.622,5.059 29.247,5.059 9.328,0 17.98,-1.621 25.949,-4.871 7.969,-3.247 15.379,-8.75 22.254,-16.528 z m -186.32,-25.594 c 3.496,0 7.004,0.157 10.5,0.481 3.496,0.309 6.707,1.082 9.617,2.281 2.922,1.211 5.285,3.059 7.09,5.551 1.816,2.477 2.726,5.945 2.726,10.406 0,3.946 -0.84,7.129 -2.531,9.555 -1.68,2.41 -3.887,4.226 -6.602,5.437 -2.722,1.211 -5.73,2.012 -9.043,2.395 -3.3,0.379 -6.503,0.562 -9.617,0.562 h -21.183 v -36.668 z m -43.536,57.305 h 47.813 c 6.613,0 12.988,-0.605 19.141,-1.816 6.164,-1.211 11.632,-3.282 16.425,-6.211 4.797,-2.93 8.614,-6.875 11.465,-11.836 2.852,-4.973 4.278,-11.27 4.278,-18.914 0,-9.809 -2.754,-18.02 -8.262,-24.641 -5.508,-6.621 -13.379,-10.637 -23.613,-12.031 l 36.543,-59.793 h -29.54 l -31.875,57.305 h -17.882 v -57.305 h -24.493 z m -43.074,-85.574 c 0,-8.156 -1.426,-15.512 -4.277,-22.063 -2.852,-6.562 -6.738,-12.128 -11.66,-16.718 -4.922,-4.578 -10.754,-8.118 -17.492,-10.594 -6.739,-2.484 -14.063,-3.734 -21.961,-3.734 -7.911,0 -15.227,1.25 -21.965,3.734 -6.739,2.476 -12.598,6.016 -17.586,10.594 -4.992,4.59 -8.879,10.156 -11.66,16.718 -2.793,6.551 -4.18,13.907 -4.18,22.063 v 85.574 h 24.48 v -84.812 c 0,-3.313 0.52,-6.782 1.563,-10.414 1.035,-3.622 2.754,-6.969 5.148,-10.028 2.391,-3.054 5.567,-5.566 9.52,-7.539 3.957,-1.972 8.848,-2.961 14.68,-2.961 5.828,0 10.722,0.989 14.668,2.961 3.953,1.973 7.128,4.485 9.519,7.539 2.402,3.059 4.121,6.406 5.156,10.028 1.036,3.632 1.555,7.101 1.555,10.414 v 84.812 h 24.492 z M 424.41,295.906 c 0,-7.254 1.133,-13.933 3.41,-20.047 2.266,-6.113 5.469,-11.394 9.618,-15.859 4.14,-4.453 9.101,-7.961 14.863,-10.508 5.773,-2.539 12.219,-3.816 19.347,-3.816 7.118,0 13.602,1.277 19.434,3.816 5.828,2.547 10.809,6.055 14.961,10.508 4.148,4.465 7.352,9.746 9.617,15.859 2.266,6.114 3.399,12.793 3.399,20.047 0,6.758 -1.133,13.059 -3.399,18.918 -2.265,5.86 -5.469,10.977 -9.617,15.371 -4.152,4.395 -9.133,7.832 -14.961,10.325 -5.832,2.476 -12.316,3.718 -19.434,3.718 -7.128,0 -13.574,-1.242 -19.347,-3.718 -5.762,-2.493 -10.723,-5.93 -14.863,-10.325 -4.149,-4.394 -7.352,-9.511 -9.618,-15.371 -2.277,-5.859 -3.41,-12.16 -3.41,-18.918 z m -25.652,-1.519 c 0,10.816 1.816,20.664 5.449,29.508 3.621,8.847 8.641,16.398 15.059,22.636 6.414,6.242 14.062,11.047 22.929,14.426 8.875,3.367 18.633,5.059 29.258,5.059 10.75,0.129 20.594,-1.438 29.539,-4.676 8.938,-3.254 16.653,-8 23.125,-14.238 6.477,-6.243 11.535,-13.75 15.156,-22.543 3.633,-8.778 5.442,-18.582 5.442,-29.414 0,-10.567 -1.809,-20.184 -5.442,-28.836 -3.621,-8.664 -8.679,-16.114 -15.156,-22.356 -6.472,-6.238 -14.187,-11.109 -23.125,-14.605 -8.945,-3.508 -18.789,-5.325 -29.539,-5.453 -10.625,0 -20.383,1.691 -29.258,5.07 -8.867,3.371 -16.515,8.144 -22.929,14.324 -6.418,6.176 -11.438,13.598 -15.059,22.246 -3.633,8.664 -5.449,18.281 -5.449,28.852 z m -49.688,39.16 c -2.59,3.687 -6.054,6.394 -10.402,8.113 -4.336,1.719 -8.906,2.578 -13.699,2.578 -2.852,0 -5.606,-0.324 -8.262,-0.957 -2.648,-0.636 -5.051,-1.648 -7.187,-3.054 -2.141,-1.399 -3.86,-3.215 -5.149,-5.442 -1.297,-2.226 -1.941,-4.875 -1.941,-7.93 0,-4.582 1.621,-8.085 4.851,-10.507 3.242,-2.414 7.258,-4.524 12.051,-6.297 4.797,-1.789 10.039,-3.508 15.742,-5.156 5.703,-1.665 10.949,-3.95 15.742,-6.875 4.797,-2.93 8.809,-6.821 12.051,-11.665 3.242,-4.832 4.863,-11.265 4.863,-19.285 0,-7.257 -1.367,-13.593 -4.082,-19.004 -2.722,-5.41 -6.386,-9.902 -10.984,-13.464 -4.601,-3.567 -9.941,-6.243 -16.035,-8.032 -6.086,-1.773 -12.5,-2.675 -19.238,-2.675 -8.547,0 -16.778,1.41 -24.68,4.21 -7.91,2.801 -14.707,7.508 -20.41,14.129 l 18.469,17.579 c 2.976,-4.461 6.894,-7.926 11.757,-10.411 4.852,-2.488 10.008,-3.726 15.45,-3.726 2.851,0 5.703,0.379 8.554,1.148 2.84,0.766 5.438,1.906 7.774,3.442 2.324,1.519 4.207,3.464 5.633,5.82 1.425,2.352 2.14,5.066 2.14,8.125 0,4.961 -1.621,8.777 -4.863,11.453 -3.242,2.676 -7.258,4.934 -12.051,6.777 -4.797,1.856 -10.039,3.606 -15.742,5.254 -5.703,1.66 -10.949,3.914 -15.742,6.785 -4.797,2.864 -8.809,6.68 -12.051,11.458 -3.234,4.777 -4.856,11.179 -4.856,19.199 0,7.004 1.457,13.054 4.368,18.144 2.918,5.098 6.738,9.324 11.472,12.703 4.727,3.379 10.137,5.891 16.231,7.551 6.086,1.649 12.304,2.481 18.652,2.481 7.258,0 14.289,-1.082 21.086,-3.25 6.805,-2.161 12.93,-5.727 18.367,-10.696 z m -199.14,29.031 h 91.14 v -21.777 h -66.66 v -33.235 h 63.164 V 285.789 H 174.41 v -36.68 h 70.168 V 227.336 H 149.93 Z M 58.0625,305.273 c 3.4961,0 6.9922,0.157 10.4883,0.481 3.5078,0.309 6.7109,1.082 9.6211,2.281 2.9179,1.211 5.2812,3.059 7.0976,5.551 1.8164,2.477 2.7266,5.945 2.7266,10.406 0,3.946 -0.8516,7.129 -2.5313,9.555 -1.6875,2.41 -3.8867,4.226 -6.6093,5.437 -2.7149,1.211 -5.7344,2.012 -9.0352,2.395 -3.3086,0.379 -6.5117,0.562 -9.6172,0.562 H 39.0117 v -36.668 z m -43.5352,57.305 h 47.8125 c 6.6016,0 12.9883,-0.605 19.1407,-1.816 6.1523,-1.211 11.6328,-3.282 16.4258,-6.211 4.7847,-2.93 8.6137,-6.875 11.4647,-11.836 2.852,-4.973 4.277,-11.27 4.277,-18.914 0,-9.809 -2.753,-18.02 -8.261,-24.641 -5.5081,-6.621 -13.3792,-10.637 -23.6136,-12.031 L 118.309,227.336 H 88.7656 l -31.875,57.305 H 39.0117 V 227.336 H 14.5273 Z"
         clip-rule="evenodd"
         id="path32" />
    </clipPath>
    <clipPath
       clipPathUnits="userSpaceOnUse"
       id="clipPath40">
      <path
         d="m -7078.6,-4631.45 h 10080 v 14320 h -10080 z"
         id="path38" />
    </clipPath>
    <clipPath
       clipPathUnits="userSpaceOnUse"
       id="clipPath50">
      <path
         d="m 1137.41,158.828 h 91.15 v -21.777 h -66.67 v -33.235 h 63.17 V 82.043 h -63.17 V 45.3711 h 70.17 V 23.5938 h -94.65 z m -91.87,-57.305 c 3.5,0 7,0.157 10.5,0.481 3.5,0.32 6.7,1.082 9.62,2.293 2.91,1.211 5.27,3.055 7.09,5.539 1.82,2.477 2.73,5.957 2.73,10.406 0,3.946 -0.84,7.129 -2.53,9.555 -1.68,2.422 -3.89,4.234 -6.62,5.437 -2.71,1.211 -5.73,2.012 -9.03,2.395 -3.3,0.379 -6.51,0.574 -9.62,0.574 h -21.18 v -36.68 z m -43.53,57.305 h 47.81 c 6.6,0 12.99,-0.605 19.14,-1.816 6.15,-1.211 11.63,-3.282 16.43,-6.203 4.79,-2.926 8.61,-6.883 11.46,-11.844 2.85,-4.973 4.28,-11.27 4.28,-18.914 0,-9.809 -2.75,-18.02 -8.26,-24.6408 -5.51,-6.6211 -13.38,-10.6368 -23.62,-12.0313 l 36.54,-59.7851 h -29.54 l -31.87,57.3046 H 1026.5 V 23.5938 h -24.49 z M 958.922,73.2539 c 0,-8.1484 -1.426,-15.5 -4.266,-22.0625 -2.851,-6.5508 -6.738,-12.1289 -11.672,-16.7109 -4.921,-4.586 -10.75,-8.125 -17.488,-10.6016 -6.738,-2.4844 -14.055,-3.7226 -21.965,-3.7226 -7.898,0 -15.222,1.2382 -21.953,3.7226 -6.738,2.4766 -12.605,6.0156 -17.598,10.6016 -4.98,4.582 -8.867,10.1601 -11.66,16.7109 -2.781,6.5625 -4.179,13.9141 -4.179,22.0625 v 85.5741 h 24.492 V 74.0234 c 0,-3.3086 0.519,-6.789 1.555,-10.4101 1.035,-3.6328 2.753,-6.9727 5.156,-10.0274 2.39,-3.0586 5.566,-5.5781 9.519,-7.5507 3.957,-1.9727 8.84,-2.961 14.668,-2.961 5.832,0 10.723,0.9883 14.68,2.961 3.953,1.9726 7.129,4.4921 9.519,7.5507 2.403,3.0547 4.114,6.3946 5.157,10.0274 1.035,3.6211 1.554,7.1015 1.554,10.4101 v 84.8046 h 24.481 z M 752.398,137.051 h -42.175 v 21.777 H 819.059 V 137.051 H 776.883 V 23.5938 H 752.398 Z M 681.129,73.2539 c 0,-8.1484 -1.426,-15.5 -4.277,-22.0625 -2.84,-6.5508 -6.739,-12.1289 -11.661,-16.7109 -4.921,-4.586 -10.75,-8.125 -17.488,-10.6016 -6.738,-2.4844 -14.055,-3.7226 -21.965,-3.7226 -7.898,0 -15.222,1.2382 -21.961,3.7226 -6.738,2.4766 -12.597,6.0156 -17.589,10.6016 -4.989,4.582 -8.875,10.1601 -11.661,16.7109 -2.781,6.5625 -4.179,13.9141 -4.179,22.0625 V 158.828 H 594.84 V 74.0234 c 0,-3.3086 0.519,-6.789 1.555,-10.4101 1.035,-3.6328 2.753,-6.9727 5.156,-10.0274 2.39,-3.0586 5.566,-5.5781 9.519,-7.5507 3.946,-1.9727 8.84,-2.961 14.668,-2.961 5.832,0 10.723,0.9883 14.68,2.961 3.953,1.9726 7.129,4.4921 9.52,7.5507 2.394,3.0547 4.113,6.3946 5.148,10.0274 1.043,3.6211 1.562,7.1015 1.562,10.4101 v 84.8046 h 24.481 z M 446.422,158.828 h 88.82 v -21.777 h -64.336 v -35.528 h 60.645 V 79.7461 H 470.906 V 23.5938 h -24.484 z"
         clip-rule="evenodd"
         id="path48" />
    </clipPath>
    <clipPath
       clipPathUnits="userSpaceOnUse"
       id="clipPath56">
      <path
         d="m -7078.6,-4631.45 h 10080 v 14320 h -10080 z"
         id="path54" />
    </clipPath>
    <clipPath
       clipPathUnits="userSpaceOnUse"
       id="clipPath66">
      <path
         d="M 0,0 H 1234 V 802 H 0 Z"
         id="path64" />
    </clipPath>
    <clipPath
       clipPathUnits="userSpaceOnUse"
       id="clipPath72">
      <path
         d="M 1.16016,476.66 184.93,797.625 c 2.41,4.219 7.793,5.684 12,3.273 1.367,-0.781 2.5,-1.914 3.273,-3.281 l 49.375,-86.515 72.09,-126.317 -66.992,-116.875 c -1.574,-2.734 -4.485,-4.426 -7.637,-4.426 H 8.79688 c -4.85547,0 -8.80078625,3.938 -8.80078625,8.801 0,1.531 0.40234425,3.047 1.16406625,4.375 z"
         id="path70" />
    </clipPath>
    <clipPath
       clipPathUnits="userSpaceOnUse"
       id="clipPath78">
      <path
         d="m -6456.26,-4194.46 h 10080 V 10125.5 h -10080 z"
         id="path76" />
    </clipPath>
    <clipPath
       clipPathUnits="userSpaceOnUse"
       id="clipPath88">
      <path
         d="m 321.648,584.773 61.797,108.204 c 2.41,4.218 7.782,5.683 12,3.285 1.368,-0.785 2.5,-1.914 3.282,-3.285 L 522.234,476.648 c 2.411,-4.214 0.946,-9.597 -3.273,-12 -1.328,-0.761 -2.832,-1.164 -4.363,-1.164 h -118.41 c -3.153,0 -6.075,1.692 -7.637,4.426 z"
         id="path86" />
    </clipPath>
    <clipPath
       clipPathUnits="userSpaceOnUse"
       id="clipPath94">
      <path
         d="m -6456.26,-4194.46 h 10080 V 10125.5 h -10080 z"
         id="path92" />
    </clipPath>
  </defs>
  <sodipodi:namedview
     id="namedview4"
     pagecolor="#ffffff"
     bordercolor="#000000"
     borderopacity="0.25"
     inkscape:showpageshadow="2"
     inkscape:pageopacity="0.0"
     inkscape:pagecheckerboard="0"
     inkscape:deskcolor="#d1d1d1" />
  <g
     id="g8"
     inkscape:groupmode="layer"
     inkscape:label="ink_ext_XXXXXX"
     transform="matrix(1.3333333,0,0,-1.3333333,0,106.94667)">
    <g
       id="g10"
       transform="scale(0.1)">
      <g
         id="g12">
        <g
           id="g14"
           clip-path="url(#clipPath18)">
          <g
             id="g20"
             clip-path="url(#clipPath24)">
            <path
               d="M -47.9219,181.992 H 449.559 V -50 H -47.9219 v 231.992"
               style="fill:#132636;fill-opacity:1;fill-rule:nonzero;stroke:none"
               id="path26" />
          </g>
        </g>
      </g>
      <g
         id="g28">
        <g
           id="g30"
           clip-path="url(#clipPath34)">
          <g
             id="g36"
             clip-path="url(#clipPath40)">
            <path
               d="M -35.4727,416.023 H 1283.57 V 173.895 H -35.4727 v 242.128"
               style="fill:#132636;fill-opacity:1;fill-rule:nonzero;stroke:none"
               id="path42" />
          </g>
        </g>
      </g>
      <g
         id="g44">
        <g
           id="g46"
           clip-path="url(#clipPath50)">
          <g
             id="g52"
             clip-path="url(#clipPath56)">
            <path
               d="M 396.422,208.828 H 1282.06 V -29.8438 H 396.422 V 208.828"
               style="fill:#132636;fill-opacity:1;fill-rule:nonzero;stroke:none"
               id="path58" />
          </g>
        </g>
      </g>
      <g
         id="g60">
        <g
           id="g62"
           clip-path="url(#clipPath66)">
          <g
             id="g68"
             clip-path="url(#clipPath72)">
            <g
               id="g74"
               clip-path="url(#clipPath78)">
              <path
                 d="M -50.0039,852.059 H 371.668 V 413.484 H -50.0039 v 438.575"
                 style="fill:#132636;fill-opacity:1;fill-rule:nonzero;stroke:none"
                 id="path80" />
            </g>
          </g>
        </g>
      </g>
      <g
         id="g82">
        <g
           id="g84"
           clip-path="url(#clipPath88)">
          <g
             id="g90"
             clip-path="url(#clipPath94)">
            <path
               d="M 271.648,747.41 H 573.395 V 413.484 H 271.648 V 747.41"
               style="fill:#132636;fill-opacity:1;fill-rule:nonzero;stroke:none"
               id="path96" />
          </g>
        </g>
      </g>
    </g>
  </g>
</svg>
