<?xml version="1.0" encoding="UTF-8" standalone="no"?>
<!-- Created with Inkscape (http://www.inkscape.org/) -->

<svg
   version="1.1"
   id="svg2"
   width="164.2"
   height="48.799999"
   viewBox="0 0 164.2 48.799999"
   sodipodi:docname="black-wordmark.eps"
   xmlns:inkscape="http://www.inkscape.org/namespaces/inkscape"
   xmlns:sodipodi="http://sodipodi.sourceforge.net/DTD/sodipodi-0.dtd"
   xmlns="http://www.w3.org/2000/svg"
   xmlns:svg="http://www.w3.org/2000/svg">
  <defs
     id="defs6">
    <clipPath
       clipPathUnits="userSpaceOnUse"
       id="clipPath18">
      <path
         d="m 384.211,94.668 c -2.949,0 -6.242,-1.6992 -9.887,-5.0899 -3.633,-3.3945 -7.039,-7.8984 -10.222,-13.5117 -3.172,-5.6172 -5.594,-11.5937 -7.254,-17.9297 8.75,2.9844 15.015,5.8789 18.797,8.6875 3.41,2.6289 6.054,5.8242 7.949,9.5821 1.886,3.75 2.832,7.8046 2.832,12.1484 0,2.4531 -0.188,4.082 -0.559,4.8906 z m 13.269,-6.3789 c 0,-7.3438 -4.187,-13.7657 -12.578,-19.2969 -8.386,-5.5156 -17.968,-10 -28.75,-13.4453 -1.007,-4.5196 -1.511,-8.9141 -1.511,-13.1758 0,-8.6875 3.172,-13.0352 9.531,-13.0352 7.93,0 15.016,4.5313 21.289,13.586 l 2.207,-1.086 c -2.949,-4.9804 -6.938,-9.2656 -11.953,-12.8437 -5.024,-3.5703 -10.293,-5.3594 -15.832,-5.3594 -5.711,0 -10.176,1.6328 -13.399,4.8945 -3.23,3.25 -4.843,8.004 -4.843,14.254 0,6.8867 2.05,14.6523 6.152,23.2929 4.102,8.6524 9.648,16.0039 16.66,22.0821 7,6.0625 14.602,9.1015 22.805,9.1015 2.945,0 5.387,-0.7734 7.32,-2.3164 1.938,-1.543 2.902,-3.7578 2.902,-6.6523 z m -66.132,-40.75 -3.457,-9.9219 c -3.313,-9.3281 -8.887,-13.9844 -16.719,-13.9844 -6.453,0 -9.68,2.8047 -9.68,8.418 0,2.7148 0.742,6.25 2.219,10.5976 l 13.125,38.8438 c 0.918,2.5391 1.387,4.8086 1.387,6.7969 0,3.0781 -1.477,4.6132 -4.422,4.6132 -3.41,0 -7.071,-2.1015 -10.988,-6.3085 -3.918,-4.211 -7.864,-10.129 -11.817,-17.7266 -3.965,-7.6055 -7.656,-16.4336 -11.062,-26.4961 l -4.973,-16.8359 h -12.023 l 27.367,90.5978 c 0.144,0.488 0.633,2.121 1.472,4.875 0.196,0.644 0.911,2.957 2.137,6.953 l 12.844,4.031 -0.293,-1.054 c -2.918,-9.805 -9.363,-31.3989 -19.348,-64.7935 4.985,11.0508 9.953,18.9922 14.934,23.836 4.969,4.8554 10.41,7.2773 16.308,7.2773 7.461,0 11.192,-3.4492 11.192,-10.332 0,-2.8945 -0.696,-6.2891 -2.071,-10.1875 L 314.07,37.0781 c -0.742,-2.1758 -1.101,-3.8945 -1.101,-5.164 0,-2.168 1.101,-3.2618 3.308,-3.2618 1.848,0 3.625,1.0274 5.325,3.0586 1.711,2.0391 3.476,5.6446 5.324,10.8008 l 1.797,5.0274 z m -98.614,-10.461 c -0.273,-1.082 -0.41,-2.0781 -0.41,-2.9843 0,-1.8165 0.559,-3.1758 1.66,-4.0743 1.106,-0.9062 2.532,-1.3672 4.278,-1.3672 2.304,0 4.453,0.9766 6.426,2.918 1.984,1.957 3.945,5.5078 5.878,10.668 l 1.934,5.3008 h 2.629 l -2.902,-8.5547 c -1.934,-5.6172 -4.446,-9.5781 -7.539,-11.8946 -3.086,-2.3046 -6.883,-3.457 -11.399,-3.457 -4.148,0 -7.234,0.9961 -9.258,2.9883 -2.027,1.9922 -3.047,4.7578 -3.047,8.2812 0,2.3555 0.422,4.9415 1.25,7.7461 l 14.653,49.9883 h -12.446 l 0.696,2.7149 h 12.441 c 2.527,8.5624 4.192,14.1794 4.973,16.8434 l 12.957,3.938 c -0.813,-2.766 -2.774,-9.688 -5.906,-20.7814 h 18.242 l -0.41,-2.7149 H 248.77 Z m -59.421,60.1797 c 2.488,0 4.46,-0.7344 5.933,-2.1797 1.477,-1.4453 2.219,-3.3008 2.219,-5.5664 0,-2.7148 -0.969,-5.0273 -2.902,-6.9336 -1.93,-1.8945 -4.2,-2.8515 -6.778,-2.8515 -1.656,0 -2.984,0.4297 -4.004,1.289 -1.011,0.8711 -1.519,2.0586 -1.519,3.6016 0,2.082 0.554,3.8516 1.66,5.293 1.101,1.457 2.625,2.5898 4.558,3.4023 l -1.523,0.5469 c -4.973,0 -10.383,-5.2735 -16.238,-15.8321 -5.852,-10.5468 -11.36,-24.4726 -16.516,-41.7656 l -2.765,-10.7265 h -12.02 L 140,83.8086 c 0.645,1.9922 0.969,3.75 0.969,5.293 0,2.082 -0.969,3.125 -2.903,3.125 -2.031,0 -3.894,-1.0664 -5.593,-3.1953 -1.711,-2.125 -3.442,-5.6797 -5.188,-10.6641 l -1.797,-5.0156 h -2.629 l 3.457,9.9101 c 3.325,9.3281 8.887,13.9961 16.719,13.9961 5.254,0 7.883,-2.6289 7.883,-7.8828 0,-2.5391 -0.645,-6.25 -1.934,-11.1406 l -4.421,-17.1133 c 4.976,13.125 9.648,22.4336 14.031,27.9102 4.375,5.4804 9.277,8.2265 14.719,8.2265 z M 91.5625,94.5313 c -4.6992,0 -9.1523,-2.9375 -13.3398,-8.8282 -4.1914,-5.8789 -7.5586,-13.2422 -10.086,-22.0703 -2.5429,-8.8281 -3.8008,-17.3125 -3.8008,-25.4687 0,-4.0703 0.6446,-7.0586 1.9336,-8.9649 1.2891,-1.9023 3.2696,-2.8515 5.9375,-2.8515 4.7071,0 9.1485,2.9375 13.3399,8.8281 4.1875,5.8906 7.5586,13.2422 10.0898,22.0703 2.5352,8.8281 3.7969,17.3242 3.7969,25.4687 0,4.0821 -0.6445,7.0704 -1.9336,8.9649 -1.2891,1.9062 -3.2734,2.8516 -5.9375,2.8516 z M 52.4531,44.9609 c 0,7.1485 1.6094,14.8243 4.8321,23.0196 3.2226,8.1914 7.8789,15.125 13.9531,20.7812 6.0859,5.6641 13.1367,8.4961 21.1562,8.4961 5.8946,0 10.5275,-1.7969 13.8825,-5.3711 3.364,-3.5742 5.051,-8.8984 5.051,-15.957 0,-7.1602 -1.621,-14.8359 -4.844,-23.0274 -3.222,-8.1953 -7.8707,-15.121 -13.9527,-20.7851 -6.086,-5.6524 -13.1368,-8.4844 -21.1524,-8.4844 -5.8906,0 -10.5195,1.7891 -13.8906,5.3594 -3.3555,3.5781 -5.0352,8.8984 -5.0352,15.9687 z m 4.8985,86.7851 c 4.0547,0 7.2578,-0.894 9.6132,-2.715 2.3399,-1.804 3.5235,-4.121 3.5235,-6.922 0,-2.351 -0.8985,-4.5 -2.6953,-6.453 -1.7969,-1.945 -3.9844,-2.922 -6.5742,-2.922 -1.7461,0 -3.125,0.411 -4.1368,1.219 -1.0156,0.824 -1.4765,1.953 -1.3867,3.402 0,2.176 0.711,4.051 2.1485,5.633 1.4257,1.59 3.3359,2.746 5.7304,3.465 0,0.813 -0.625,1.567 -1.8633,2.246 -1.2421,0.676 -2.7461,1.02 -4.4921,1.02 -2.7657,0 -5.4415,-1.184 -8.0196,-3.535 -1.9336,-1.719 -3.5429,-4.454 -4.8359,-8.215 -1.2852,-3.758 -2.8985,-9.309 -4.8399,-16.641 l -1.5156,-5.8397 v -0.1367 h 16.3086 l -0.832,-2.7149 H 37.1758 L 12.4414,1.89453 C 7.46094,1.71875 3.3125,1.08594 0,0 L 25.1563,92.6367 H 12.7148 l 0.8282,2.7149 h 12.4414 v 0.1367 c 2.0234,7.4217 4.1211,13.4647 6.2812,18.1327 2.168,4.66 4.7735,8.442 7.8125,11.34 2.1211,2.078 4.7266,3.738 7.8125,4.961 3.086,1.223 6.2422,1.824 9.461,1.824 z"
         clip-rule="evenodd"
         id="path16" />
    </clipPath>
    <clipPath
       clipPathUnits="userSpaceOnUse"
       id="clipPath24">
      <path
         d="M -7080.68,-4631.45 H 2999.33 v 14320 H -7080.68 Z"
         id="path22" />
    </clipPath>
    <clipPath
       clipPathUnits="userSpaceOnUse"
       id="clipPath34">
      <path
         d="M 0,0 H 1231 V 366 H 0 Z"
         id="path32" />
    </clipPath>
    <clipPath
       clipPathUnits="userSpaceOnUse"
       id="clipPath40">
      <path
         d="m 1212.83,333.547 c -2.59,3.691 -6.05,6.394 -10.4,8.113 -4.33,1.719 -8.9,2.578 -13.7,2.578 -2.85,0 -5.6,-0.32 -8.25,-0.957 -2.66,-0.633 -5.06,-1.648 -7.2,-3.054 -2.14,-1.399 -3.86,-3.215 -5.15,-5.442 -1.29,-2.226 -1.94,-4.871 -1.94,-7.93 0,-4.578 1.62,-8.085 4.85,-10.507 3.25,-2.41 7.26,-4.52 12.06,-6.297 4.79,-1.789 10.03,-3.508 15.74,-5.156 5.7,-1.661 10.95,-3.946 15.74,-6.875 4.8,-2.93 8.81,-6.817 12.05,-11.661 3.24,-4.836 4.86,-11.269 4.86,-19.289 0,-7.254 -1.36,-13.593 -4.08,-19.004 -2.72,-5.41 -6.38,-9.902 -10.98,-13.464 -4.6,-3.567 -9.95,-6.243 -16.04,-8.032 -6.08,-1.773 -12.5,-2.672 -19.24,-2.672 -8.55,0 -16.77,1.407 -24.68,4.207 -7.91,2.801 -14.7,7.508 -20.41,14.133 l 18.47,17.578 c 2.98,-4.464 6.9,-7.929 11.76,-10.41 4.85,-2.492 10.01,-3.73 15.45,-3.73 2.85,0 5.7,0.379 8.55,1.148 2.84,0.766 5.44,1.906 7.78,3.442 2.32,1.519 4.21,3.464 5.63,5.82 1.43,2.352 2.14,5.066 2.14,8.125 0,4.961 -1.62,8.777 -4.86,11.453 -3.25,2.676 -7.26,4.934 -12.05,6.777 -4.8,1.856 -10.04,3.606 -15.75,5.254 -5.7,1.66 -10.94,3.918 -15.74,6.789 -4.79,2.86 -8.81,6.68 -12.05,11.454 -3.23,4.777 -4.85,11.183 -4.85,19.199 0,7.004 1.45,13.058 4.36,18.144 2.92,5.098 6.74,9.328 11.48,12.707 4.72,3.379 10.13,5.887 16.22,7.547 6.09,1.653 12.31,2.481 18.66,2.481 7.26,0 14.29,-1.082 21.08,-3.25 6.81,-2.161 12.93,-5.723 18.37,-10.696 z m -199.14,29.031 h 91.14 v -21.777 h -66.66 V 307.57 h 63.17 v -21.777 h -63.17 v -36.68 h 70.17 v -21.777 h -94.65 z m -51.639,-31.707 c -5.047,5.352 -9.942,8.914 -14.668,10.692 -4.738,1.789 -9.492,2.675 -14.285,2.675 -7.129,0 -13.578,-1.238 -19.336,-3.718 -5.774,-2.493 -10.727,-5.93 -14.875,-10.325 -4.141,-4.394 -7.356,-9.511 -9.617,-15.371 -2.266,-5.859 -3.403,-12.156 -3.403,-18.914 0,-7.258 1.137,-13.937 3.403,-20.051 2.261,-6.113 5.476,-11.394 9.617,-15.859 4.148,-4.453 9.101,-7.961 14.875,-10.508 5.758,-2.539 12.207,-3.816 19.336,-3.816 5.562,0 10.972,1.308 16.226,3.914 5.246,2.617 10.141,6.789 14.668,12.512 l 20.219,-14.133 c -6.223,-8.406 -13.801,-14.524 -22.734,-18.34 -8.95,-3.816 -18.469,-5.731 -28.579,-5.731 -10.625,0 -20.371,1.688 -29.246,5.067 -8.879,3.371 -16.523,8.144 -22.937,14.324 -6.406,6.176 -11.43,13.598 -15.063,22.246 -3.621,8.664 -5.437,18.285 -5.437,28.852 0,10.82 1.816,20.664 5.437,29.511 3.633,8.848 8.657,16.395 15.063,22.637 6.414,6.238 14.058,11.043 22.937,14.422 8.875,3.371 18.621,5.059 29.246,5.059 9.329,0 17.981,-1.621 25.95,-4.871 7.968,-3.243 15.382,-8.75 22.257,-16.524 z M 775.73,305.273 c 3.5,0 7.004,0.157 10.5,0.481 3.497,0.312 6.708,1.082 9.622,2.285 2.918,1.211 5.281,3.055 7.086,5.547 1.82,2.48 2.726,5.945 2.726,10.41 0,3.945 -0.84,7.129 -2.527,9.551 -1.684,2.41 -3.891,4.226 -6.606,5.437 -2.722,1.211 -5.73,2.012 -9.043,2.395 -3.3,0.379 -6.504,0.566 -9.617,0.566 h -21.183 v -36.672 z m -43.535,57.305 h 47.817 c 6.609,0 12.984,-0.605 19.136,-1.816 6.165,-1.211 11.633,-3.282 16.426,-6.211 4.797,-2.93 8.614,-6.875 11.469,-11.836 2.852,-4.969 4.273,-11.27 4.273,-18.914 0,-9.805 -2.753,-18.02 -8.257,-24.641 -5.508,-6.621 -13.379,-10.633 -23.618,-12.031 l 36.543,-59.793 h -29.539 l -31.875,57.305 h -17.882 v -57.305 h -24.493 z m -43.074,-85.574 c 0,-8.156 -1.426,-15.512 -4.277,-22.063 -2.852,-6.562 -6.739,-12.128 -11.66,-16.718 -4.922,-4.578 -10.75,-8.114 -17.493,-10.594 -6.738,-2.481 -14.058,-3.731 -21.961,-3.731 -7.91,0 -15.222,1.25 -21.96,3.731 -6.743,2.48 -12.598,6.016 -17.59,10.594 -4.992,4.59 -8.875,10.156 -11.66,16.718 -2.793,6.551 -4.18,13.907 -4.18,22.063 v 85.574 h 24.48 v -84.812 c 0,-3.313 0.52,-6.778 1.567,-10.411 1.035,-3.625 2.754,-6.972 5.144,-10.031 2.395,-3.054 5.567,-5.566 9.524,-7.539 3.953,-1.972 8.843,-2.961 14.675,-2.961 5.833,0 10.723,0.989 14.668,2.961 3.957,1.973 7.129,4.485 9.524,7.539 2.398,3.059 4.121,6.406 5.152,10.031 1.035,3.633 1.555,7.098 1.555,10.411 v 84.812 h 24.492 z M 422.336,295.91 c 0,-7.258 1.133,-13.937 3.406,-20.051 2.266,-6.113 5.469,-11.394 9.617,-15.859 4.145,-4.453 9.106,-7.961 14.868,-10.508 5.769,-2.539 12.214,-3.816 19.343,-3.816 7.118,0 13.606,1.277 19.434,3.816 5.832,2.547 10.809,6.055 14.961,10.508 4.148,4.465 7.351,9.746 9.621,15.859 2.266,6.114 3.394,12.793 3.394,20.051 0,6.758 -1.128,13.055 -3.394,18.914 -2.27,5.86 -5.473,10.977 -9.621,15.371 -4.152,4.395 -9.129,7.832 -14.961,10.325 -5.828,2.48 -12.316,3.718 -19.434,3.718 -7.129,0 -13.574,-1.238 -19.343,-3.718 -5.762,-2.493 -10.723,-5.93 -14.868,-10.325 -4.148,-4.394 -7.351,-9.511 -9.617,-15.371 -2.273,-5.859 -3.406,-12.156 -3.406,-18.914 z m -25.656,-1.523 c 0,10.82 1.816,20.664 5.449,29.511 3.625,8.848 8.641,16.395 15.059,22.637 6.417,6.238 14.062,11.043 22.929,14.422 8.875,3.371 18.633,5.059 29.258,5.059 10.754,0.129 20.598,-1.434 29.543,-4.676 8.934,-3.254 16.648,-8 23.125,-14.238 6.473,-6.243 11.531,-13.75 15.152,-22.539 3.633,-8.782 5.442,-18.586 5.442,-29.415 0,-10.566 -1.809,-20.187 -5.442,-28.839 -3.621,-8.661 -8.679,-16.114 -15.152,-22.356 -6.477,-6.238 -14.191,-11.109 -23.125,-14.605 -8.945,-3.508 -18.789,-5.325 -29.543,-5.45 -10.625,0 -20.383,1.688 -29.258,5.067 -8.867,3.371 -16.512,8.144 -22.929,14.324 -6.418,6.176 -11.434,13.598 -15.059,22.246 -3.633,8.664 -5.449,18.285 -5.449,28.852 z m -49.688,39.16 c -2.59,3.691 -6.054,6.394 -10.398,8.113 -4.336,1.719 -8.906,2.578 -13.703,2.578 -2.852,0 -5.606,-0.32 -8.262,-0.957 -2.649,-0.633 -5.051,-1.648 -7.188,-3.054 -2.136,-1.399 -3.855,-3.215 -5.144,-5.442 -1.301,-2.226 -1.945,-4.871 -1.945,-7.93 0,-4.578 1.621,-8.085 4.851,-10.507 3.242,-2.41 7.258,-4.52 12.055,-6.297 4.793,-1.789 10.039,-3.508 15.738,-5.156 5.703,-1.661 10.949,-3.946 15.742,-6.875 4.797,-2.93 8.813,-6.817 12.055,-11.661 3.238,-4.836 4.859,-11.269 4.859,-19.289 0,-7.254 -1.367,-13.593 -4.082,-19.004 -2.722,-5.41 -6.382,-9.902 -10.984,-13.464 -4.602,-3.567 -9.941,-6.243 -16.035,-8.032 -6.082,-1.773 -12.5,-2.672 -19.238,-2.672 -8.543,0 -16.778,1.407 -24.676,4.207 -7.91,2.801 -14.707,7.508 -20.41,14.133 l 18.464,17.578 c 2.981,-4.464 6.895,-7.929 11.758,-10.41 4.856,-2.492 10.012,-3.73 15.449,-3.73 2.852,0 5.704,0.379 8.555,1.148 2.844,0.766 5.442,1.906 7.774,3.442 2.324,1.519 4.211,3.464 5.632,5.82 1.426,2.352 2.141,5.066 2.141,8.125 0,4.961 -1.621,8.777 -4.863,11.453 -3.242,2.676 -7.254,4.934 -12.051,6.777 -4.797,1.856 -10.039,3.606 -15.742,5.254 -5.703,1.66 -10.949,3.918 -15.742,6.789 -4.793,2.86 -8.809,6.68 -12.051,11.454 -3.235,4.777 -4.856,11.183 -4.856,19.199 0,7.004 1.457,13.058 4.368,18.144 2.917,5.098 6.738,9.328 11.472,12.707 4.731,3.379 10.141,5.887 16.235,7.547 6.082,1.653 12.3,2.481 18.652,2.481 7.254,0 14.285,-1.082 21.082,-3.25 6.809,-2.161 12.93,-5.723 18.367,-10.696 z m -199.14,29.031 h 91.14 V 340.801 H 172.336 V 307.57 h 63.16 v -21.777 h -63.16 v -36.68 H 242.5 V 227.336 H 147.852 Z M 55.9844,305.273 c 3.4961,0 6.9922,0.157 10.4883,0.481 3.5078,0.312 6.7109,1.082 9.6211,2.285 2.9218,1.211 5.2851,3.055 7.1015,5.547 1.8164,2.48 2.7227,5.945 2.7227,10.41 0,3.945 -0.8477,7.129 -2.5274,9.551 -1.6914,2.41 -3.8867,4.226 -6.6133,5.437 -2.7148,1.211 -5.7343,2.012 -9.0351,2.395 -3.3086,0.379 -6.5117,0.566 -9.6172,0.566 H 36.9336 v -36.672 z m -43.5313,57.305 h 47.8125 c 6.5977,0 12.9883,-0.605 19.1407,-1.816 6.1484,-1.211 11.6289,-3.282 16.4257,-6.211 4.781,-2.93 8.609,-6.875 11.465,-11.836 2.848,-4.969 4.273,-11.27 4.273,-18.914 0,-9.805 -2.754,-18.02 -8.257,-24.641 -5.5122,-6.621 -13.3833,-10.633 -23.6138,-12.031 L 116.23,227.336 H 86.6914 l -31.875,57.305 H 36.9336 V 227.336 H 12.4531 Z"
         clip-rule="evenodd"
         id="path38" />
    </clipPath>
    <clipPath
       clipPathUnits="userSpaceOnUse"
       id="clipPath46">
      <path
         d="M -7080.68,-4631.45 H 2999.33 v 14320 H -7080.68 Z"
         id="path44" />
    </clipPath>
    <clipPath
       clipPathUnits="userSpaceOnUse"
       id="clipPath56">
      <path
         d="m 1135.33,158.828 h 91.15 v -21.777 h -66.67 V 103.82 h 63.17 V 82.0391 h -63.17 v -36.668 h 70.17 V 23.5938 h -94.65 z m -91.86,-57.305 c 3.49,0 6.99,0.157 10.49,0.481 3.5,0.32 6.7,1.082 9.62,2.293 2.91,1.211 5.28,3.058 7.09,5.539 1.82,2.48 2.73,5.953 2.73,10.406 0,3.949 -0.84,7.129 -2.53,9.555 -1.68,2.422 -3.89,4.234 -6.61,5.437 -2.72,1.211 -5.73,2.012 -9.04,2.395 -3.3,0.379 -6.51,0.574 -9.61,0.574 h -21.19 v -36.68 z m -43.536,57.305 h 47.806 c 6.61,0 12.99,-0.605 19.14,-1.816 6.16,-1.211 11.64,-3.282 16.43,-6.199 4.8,-2.93 8.61,-6.887 11.47,-11.848 2.85,-4.973 4.27,-11.27 4.27,-18.914 0,-9.809 -2.75,-18.02 -8.26,-24.6408 -5.51,-6.6211 -13.38,-10.6329 -23.61,-12.0313 l 36.53,-59.7851 h -29.54 l -31.87,57.3046 h -17.88 V 23.5938 H 999.934 Z M 956.848,73.2539 c 0,-8.1445 -1.426,-15.5 -4.27,-22.0625 -2.851,-6.5508 -6.738,-12.1289 -11.672,-16.707 -4.922,-4.5899 -10.75,-8.125 -17.488,-10.6055 -6.738,-2.4805 -14.055,-3.7226 -21.965,-3.7226 -7.898,0 -15.223,1.2421 -21.949,3.7226 -6.738,2.4805 -12.609,6.0156 -17.602,10.6055 -4.976,4.5781 -8.867,10.1562 -11.66,16.707 -2.781,6.5625 -4.179,13.918 -4.179,22.0625 v 85.5741 h 24.496 V 74.0234 c 0,-3.3086 0.515,-6.7851 1.55,-10.4101 1.036,-3.6328 2.754,-6.9727 5.157,-10.0274 2.39,-3.0586 5.566,-5.5781 9.519,-7.5507 3.957,-1.9727 8.84,-2.961 14.668,-2.961 5.832,0 10.727,0.9883 14.68,2.961 3.957,1.9726 7.129,4.4921 9.519,7.5507 2.407,3.0547 4.114,6.3946 5.161,10.0274 1.035,3.625 1.55,7.1015 1.55,10.4101 v 84.8046 h 24.485 z M 750.32,137.051 h -42.175 v 21.777 H 816.98 V 137.051 H 774.805 V 23.5938 H 750.32 Z M 679.055,73.2539 c 0,-8.1445 -1.426,-15.5 -4.282,-22.0625 -2.839,-6.5508 -6.738,-12.1289 -11.66,-16.707 -4.922,-4.5899 -10.75,-8.125 -17.488,-10.6055 -6.738,-2.4805 -14.055,-3.7226 -21.965,-3.7226 -7.898,0 -15.222,1.2421 -21.961,3.7226 -6.738,2.4805 -12.597,6.0156 -17.59,10.6055 -4.988,4.5781 -8.875,10.1562 -11.66,16.707 -2.781,6.5625 -4.179,13.918 -4.179,22.0625 v 85.5741 h 24.496 V 74.0234 c 0,-3.3086 0.515,-6.7851 1.55,-10.4101 1.036,-3.6328 2.754,-6.9727 5.157,-10.0274 2.39,-3.0586 5.566,-5.5781 9.519,-7.5507 3.946,-1.9727 8.84,-2.961 14.668,-2.961 5.832,0 10.727,0.9883 14.68,2.961 3.957,1.9726 7.129,4.4921 9.519,7.5507 2.395,3.0547 4.114,6.3946 5.149,10.0274 1.047,3.625 1.562,7.1015 1.562,10.4101 v 84.8046 h 24.485 z M 444.348,158.828 h 88.816 v -21.777 h -64.336 v -35.528 h 60.645 V 79.7461 H 468.828 V 23.5938 h -24.48 z"
         clip-rule="evenodd"
         id="path54" />
    </clipPath>
    <clipPath
       clipPathUnits="userSpaceOnUse"
       id="clipPath62">
      <path
         d="M -7080.68,-4631.45 H 2999.33 v 14320 H -7080.68 Z"
         id="path60" />
    </clipPath>
  </defs>
  <sodipodi:namedview
     id="namedview4"
     pagecolor="#ffffff"
     bordercolor="#000000"
     borderopacity="0.25"
     inkscape:showpageshadow="2"
     inkscape:pageopacity="0.0"
     inkscape:pagecheckerboard="0"
     inkscape:deskcolor="#d1d1d1" />
  <g
     id="g8"
     inkscape:groupmode="layer"
     inkscape:label="ink_ext_XXXXXX"
     transform="matrix(1.3333333,0,0,-1.3333333,0,48.8)">
    <g
       id="g10"
       transform="scale(0.1)">
      <g
         id="g12">
        <g
           id="g14"
           clip-path="url(#clipPath18)">
          <g
             id="g20"
             clip-path="url(#clipPath24)">
            <path
               d="M -50,181.992 H 447.48 V -50 H -50 v 231.992"
               style="fill:#132636;fill-opacity:1;fill-rule:nonzero;stroke:none"
               id="path26" />
          </g>
        </g>
      </g>
      <g
         id="g28">
        <g
           id="g30"
           clip-path="url(#clipPath34)">
          <g
             id="g36"
             clip-path="url(#clipPath40)">
            <g
               id="g42"
               clip-path="url(#clipPath46)">
              <path
                 d="M -37.5469,416.027 H 1281.49 V 173.898 H -37.5469 v 242.129"
                 style="fill:#132636;fill-opacity:1;fill-rule:nonzero;stroke:none"
                 id="path48" />
            </g>
          </g>
        </g>
      </g>
      <g
         id="g50">
        <g
           id="g52"
           clip-path="url(#clipPath56)">
          <g
             id="g58"
             clip-path="url(#clipPath62)">
            <path
               d="M 394.348,208.828 H 1279.98 V -29.8438 H 394.348 V 208.828"
               style="fill:#132636;fill-opacity:1;fill-rule:nonzero;stroke:none"
               id="path64" />
          </g>
        </g>
      </g>
    </g>
  </g>
</svg>
