<?xml version="1.0" encoding="UTF-8" standalone="no"?>
<!-- Created with Inkscape (http://www.inkscape.org/) -->

<svg
   version="1.1"
   id="svg2"
   width="1265.8134"
   height="502.54666"
   viewBox="0 0 1265.8134 502.54666"
   sodipodi:docname="white-wordmark.eps"
   xmlns:inkscape="http://www.inkscape.org/namespaces/inkscape"
   xmlns:sodipodi="http://sodipodi.sourceforge.net/DTD/sodipodi-0.dtd"
   xmlns="http://www.w3.org/2000/svg"
   xmlns:svg="http://www.w3.org/2000/svg">
  <defs
     id="defs6">
    <clipPath
       clipPathUnits="userSpaceOnUse"
       id="clipPath18">
      <path
         d="m 2783.74,1213.18 c -20.84,0 -44.13,-12.01 -69.85,-36 -25.72,-24 -49.81,-55.84 -72.28,-95.53 -22.46,-39.67 -39.55,-81.908 -51.28,-126.72 61.86,21.129 106.14,41.609 132.84,61.45 24.1,18.55 42.82,41.11 56.17,67.68 13.35,26.56 20.02,55.2 20.02,85.91 0,17.29 -1.3,28.81 -3.91,34.56 -2.6,5.77 -6.51,8.65 -11.71,8.65 z m 93.77,-45.12 c 0,-51.85 -29.63,-97.29 -88.89,-136.32 -59.26,-39.041 -126.98,-70.72 -203.18,-95.049 -7.15,-31.992 -10.74,-63.043 -10.74,-93.109 0,-61.441 22.46,-92.16 67.4,-92.16 56,0 106.15,32 150.42,95.988 l 15.63,-7.668 c -20.84,-35.211 -49,-65.441 -84.49,-90.722 -35.49,-25.29 -72.77,-37.918 -111.84,-37.918 -40.38,0 -71.96,11.519 -94.74,34.558 -22.8,23.031 -34.19,56.641 -34.19,100.801 0,48.641 14.48,103.508 43.46,164.639 28.98,61.12 68.22,113.12 117.7,155.99 49.49,42.88 103.21,64.33 161.17,64.33 20.84,0 38.1,-5.44 51.77,-16.32 13.68,-10.88 20.52,-26.56 20.52,-47.04 z m -467.4,-288.001 -24.42,-70.09 c -23.44,-65.91 -62.83,-98.867 -118.18,-98.867 -45.59,0 -68.38,19.839 -68.38,59.519 0,19.199 5.21,44.16 15.63,74.879 l 92.79,274.56 c 6.52,17.92 9.77,33.92 9.77,48 0,21.76 -10.42,32.64 -31.26,32.64 -24.09,0 -49.98,-14.89 -77.65,-44.64 -27.68,-29.76 -55.51,-71.53 -83.52,-125.29 -28,-53.758 -54.04,-116.149 -78.14,-187.188 l -35.16,-119.051 h -84.98 l 193.4,640.329 c 1.04,3.47 4.52,14.95 10.45,34.44 1.38,4.55 6.42,20.93 15.1,49.13 l 90.74,28.55 c -0.61,-2.39 -1.3,-4.88 -2.08,-7.46 -20.61,-69.29 -66.17,-221.94 -136.68,-457.95 35.17,78.09 70.33,134.24 105.5,168.49 35.16,34.24 73.58,51.36 115.26,51.36 52.74,0 79.12,-24.33 79.12,-72.96 0,-20.48 -4.89,-44.48 -14.66,-72 l -94.75,-280.319 c -5.2,-15.371 -7.81,-27.52 -7.81,-36.481 0,-15.359 7.81,-23.051 23.45,-23.051 13.02,0 25.55,7.211 37.61,21.61 12.04,14.402 24.58,39.84 37.59,76.312 l 12.71,35.528 h 18.55 z m -696.93,-73.918 c -1.95,-7.68 -2.93,-14.719 -2.93,-21.129 0,-12.793 3.91,-22.391 11.72,-28.801 7.81,-6.391 17.91,-9.602 30.28,-9.602 16.28,0 31.42,6.891 45.42,20.653 14,13.758 27.84,38.879 41.51,75.359 l 13.68,37.438 h 18.56 L 1850.9,819.57 c -13.67,-39.672 -31.41,-67.672 -53.23,-83.988 -21.82,-16.32 -48.68,-24.48 -80.58,-24.48 -29.31,0 -51.12,7.039 -65.45,21.117 -14.33,14.082 -21.49,33.59 -21.49,58.551 0,16.64 2.93,34.89 8.79,54.73 l 103.54,353.28 h -87.91 l 4.88,19.2 h 87.92 c 17.89,60.55 29.61,100.24 35.16,119.08 l 91.55,27.8 c -5.69,-19.52 -19.6,-68.47 -41.74,-146.88 h 128.94 l -2.93,-19.2 h -131.87 l -113.3,-392.639 z m -420.02,425.279 c 17.58,0 31.59,-5.12 42,-15.36 10.42,-10.25 15.63,-23.36 15.63,-39.36 0,-19.21 -6.83,-35.53 -20.51,-48.96 -13.67,-13.44 -29.63,-20.16 -47.86,-20.16 -11.73,0 -21.16,3.04 -28.33,9.12 -7.16,6.08 -10.74,14.55 -10.74,25.44 0,14.72 3.9,27.2 11.72,37.43 7.81,10.25 18.56,18.24 32.23,24.01 -2.6,2.56 -6.19,3.83 -10.74,3.83 -35.17,0 -73.42,-37.27 -114.78,-111.83 -41.35,-74.56 -80.26,-172.959 -116.72,-295.209 l -19.54,-75.84 h -84.977 l 117.217,411.849 c 4.55,14.08 6.84,26.55 6.84,37.44 0,14.72 -6.84,22.08 -20.52,22.08 -14.32,0 -27.51,-7.52 -39.56,-22.57 -12.043,-15.04 -24.254,-40.15 -36.629,-75.35 l -12.696,-35.53 h -18.558 l 24.418,70.09 c 23.441,65.92 62.845,98.88 118.185,98.88 37.12,0 55.68,-18.57 55.68,-55.69 0,-17.92 -4.55,-44.16 -13.67,-78.72 l -31.26,-120.951 c 35.17,92.801 68.21,158.561 99.15,197.271 30.92,38.72 65.6,58.09 104.02,58.09 z m -577.765,-19.2 c -33.211,0 -64.633,-20.8 -94.262,-62.4 -29.629,-41.6 -53.395,-93.61 -71.305,-156 -17.91,-62.398 -26.859,-122.398 -26.859,-180 0,-28.808 4.554,-49.918 13.676,-63.359 9.113,-13.449 23.117,-20.16 42,-20.16 33.21,0 64.632,20.801 94.261,62.398 29.629,41.602 53.399,93.602 71.305,155.992 17.902,62.409 26.859,122.409 26.859,179.999 0,28.8 -4.554,49.93 -13.672,63.36 -9.121,13.45 -23.121,20.17 -42.003,20.17 z m -276.43,-350.4 c 0,50.559 11.398,104.789 34.183,162.71 22.793,57.92 55.68,106.89 98.661,146.89 42.976,40 92.793,60 149.445,60 41.676,0 74.402,-12.64 98.164,-37.92 23.77,-25.28 35.656,-62.88 35.656,-112.8 0,-50.56 -11.398,-104.802 -34.191,-162.72 -22.785,-57.921 -55.672,-106.878 -98.653,-146.878 -42.976,-40 -92.792,-60 -149.449,-60 -41.672,0 -74.398,12.628 -98.168,37.918 -23.761,25.281 -35.648,62.878 -35.648,112.8 z m 34.672,613.44 c 28.652,0 51.285,-6.4 67.89,-19.2 16.602,-12.81 24.911,-29.12 24.911,-48.97 0,-16.63 -6.356,-31.83 -19.051,-45.59 -12.699,-13.76 -28.164,-20.65 -46.395,-20.65 -12.375,0 -22.144,2.88 -29.308,8.64 -7.161,5.77 -10.418,13.76 -9.766,24.01 0,15.36 5.051,28.64 15.145,39.83 10.089,11.2 23.601,19.37 40.531,24.48 0,5.77 -4.395,11.05 -13.184,15.84 -8.789,4.81 -19.375,7.2 -31.75,7.2 -19.531,0 -38.418,-8.31 -56.648,-24.95 -13.676,-12.17 -25.074,-31.52 -34.192,-58.09 -9.117,-26.56 -20.511,-65.76 -34.183,-117.59 l -10.746,-41.28 v -0.96 h 115.261 l -5.863,-19.2 H 331.031 L 156.188,557.488 C 121.02,556.211 91.7188,551.742 68.2773,544.059 L 246.051,1198.78 h -87.91 l 5.859,19.2 h 87.91 v 0.96 c 14.324,52.48 29.141,95.19 44.442,128.15 15.304,32.97 33.703,59.69 55.191,80.17 14.977,14.72 33.375,26.39 55.187,35.04 21.817,8.64 44.122,12.96 66.907,12.96 z"
         clip-rule="evenodd"
         id="path16" />
    </clipPath>
    <clipPath
       clipPathUnits="userSpaceOnUse"
       id="clipPath24">
      <path
         d="M 68.2773,49.1406 9493.65,0 V 3720 L 68.2773,3769.14 Z"
         id="path22" />
    </clipPath>
    <clipPath
       clipPathUnits="userSpaceOnUse"
       id="clipPath34">
      <path
         d="m 8640.08,2901.42 c -18.31,26.1 -42.81,45.22 -73.48,57.37 -30.68,12.16 -62.96,18.23 -96.84,18.23 -20.15,0 -39.61,-2.25 -58.38,-6.75 -18.78,-4.5 -35.71,-11.7 -50.83,-21.6 -15.11,-9.9 -27.23,-22.72 -36.39,-38.48 -9.16,-15.74 -13.74,-34.42 -13.74,-56.02 0,-32.4 11.45,-57.15 34.34,-74.25 22.89,-17.1 51.28,-31.95 85.17,-44.55 33.87,-12.6 70.96,-24.75 111.26,-36.45 40.29,-11.7 77.37,-27.9 111.26,-48.6 33.88,-20.7 62.26,-48.15 85.16,-82.35 22.89,-34.2 34.34,-79.65 34.34,-136.35 0,-51.3 -9.62,-96.08 -28.84,-134.33 -19.24,-38.24 -45.11,-69.97 -77.62,-95.17 -32.5,-25.2 -70.28,-44.1 -113.32,-56.7 -43.03,-12.6 -88.37,-18.9 -135.98,-18.9 -60.44,0 -118.59,9.9 -174.45,29.7 -55.86,19.8 -103.93,53.1 -144.23,99.9 l 130.49,124.2 c 21.07,-31.5 48.76,-56.03 83.11,-73.57 34.33,-17.56 70.74,-26.33 109.2,-26.33 20.14,0 40.29,2.7 60.44,8.1 20.14,5.4 38.45,13.5 54.94,24.3 16.48,10.8 29.76,24.52 39.83,41.17 10.08,16.65 15.11,35.78 15.11,57.38 0,35.1 -11.45,62.1 -34.34,81 -22.89,18.9 -51.28,34.87 -85.16,47.93 -33.88,13.04 -70.97,25.42 -111.26,37.12 -40.29,11.7 -77.38,27.68 -111.26,47.92 -33.88,20.25 -62.27,47.26 -85.17,81.01 -22.89,33.75 -34.33,78.97 -34.33,135.67 0,49.5 10.3,92.25 30.9,128.25 20.6,36 47.62,65.93 81.04,89.77 33.43,23.85 71.66,41.63 114.7,53.33 43.04,11.7 86.99,17.55 131.86,17.55 51.28,0 100.97,-7.65 149.04,-22.96 48.08,-15.29 91.34,-40.49 129.81,-75.59 l -126.38,-130.95 z m -1407.48,205.2 h 644.22 v -153.9 h -471.15 v -234.9 h 446.42 v -153.9 h -446.42 v -259.2 h 495.88 v -153.9 H 7232.6 v 955.8 z m -364.92,-224.1 c -35.71,37.8 -70.28,63 -103.71,75.6 -33.42,12.6 -67.07,18.9 -100.96,18.9 -50.36,0 -95.92,-8.77 -136.67,-26.32 -40.75,-17.56 -75.78,-41.86 -105.08,-72.9 -29.3,-31.05 -51.97,-67.28 -67.99,-108.68 -16.03,-41.4 -24.05,-85.95 -24.05,-133.65 0,-51.3 8.02,-98.55 24.05,-141.75 16.02,-43.2 38.69,-80.55 67.99,-112.05 29.3,-31.5 64.33,-56.25 105.08,-74.25 40.75,-18 86.31,-27 136.67,-27 39.38,0 77.61,9.22 114.7,27.67 37.09,18.46 71.65,47.93 103.7,88.43 l 142.86,-99.9 c -43.95,-59.4 -97.53,-102.6 -160.71,-129.6 -63.18,-27 -130.49,-40.5 -201.91,-40.5 -75.1,0 -144.01,11.92 -206.73,35.77 -62.74,23.86 -116.76,57.61 -162.09,101.25 -45.33,43.65 -80.81,96.08 -106.46,157.28 -25.63,61.2 -38.45,129.15 -38.45,203.85 0,76.5 12.82,146.03 38.45,208.58 25.65,62.54 61.13,115.87 106.46,159.97 45.33,44.1 99.35,78.07 162.09,101.92 62.72,23.85 131.63,35.78 206.73,35.78 65.92,0 127.05,-11.47 183.36,-34.43 56.32,-22.95 108.74,-61.87 157.28,-116.77 l -134.61,-97.2 z m -1316.83,-180.9 c 24.73,0 49.46,1.12 74.17,3.37 24.73,2.25 47.4,7.65 68,16.2 20.61,8.55 37.32,21.61 50.14,39.15 12.82,17.55 19.23,42.08 19.23,73.58 0,27.9 -5.95,50.4 -17.85,67.5 -11.92,17.1 -27.47,29.92 -46.71,38.47 -19.23,8.56 -40.52,14.18 -63.87,16.88 -23.35,2.7 -46.02,4.05 -68,4.05 h -149.71 v -259.2 h 134.6 z m -307.68,405 h 337.91 c 46.7,0 91.8,-4.28 135.29,-12.83 43.5,-8.55 82.19,-23.17 116.08,-43.87 33.87,-20.71 60.89,-48.6 81.03,-83.7 20.16,-35.1 30.23,-79.65 30.23,-133.65 0,-69.3 -19.47,-127.35 -58.38,-174.15 -38.92,-46.8 -94.55,-75.15 -166.9,-85.05 l 258.24,-422.55 h -208.78 l -225.28,405 h -126.36 v -405 h -173.08 v 955.8 z m -304.48,-604.8 c 0,-57.6 -10.07,-109.58 -30.22,-155.93 -20.14,-46.35 -47.62,-85.72 -82.42,-118.12 -34.79,-32.4 -76.01,-57.38 -123.62,-74.93 -47.62,-17.54 -99.36,-26.32 -155.22,-26.32 -55.86,0 -107.6,8.78 -155.21,26.32 -47.62,17.55 -89.07,42.53 -124.32,74.93 -35.25,32.4 -62.72,71.77 -82.41,118.12 -19.69,46.35 -29.53,98.33 -29.53,155.93 v 604.8 h 173.06 v -599.4 c 0,-23.4 3.67,-47.93 11,-73.57 7.32,-25.65 19.45,-49.28 36.4,-70.88 16.94,-21.6 39.37,-39.37 67.3,-53.32 27.93,-13.95 62.5,-20.93 103.71,-20.93 41.21,0 75.77,6.98 103.7,20.93 27.94,13.95 50.37,31.72 67.32,53.32 16.93,21.6 29.07,45.23 36.39,70.88 7.33,25.64 10.99,50.17 10.99,73.57 v 599.4 h 173.08 v -604.8 z m -1885.5,133.65 c 0,-51.3 8.02,-98.55 24.04,-141.75 16.03,-43.2 38.69,-80.55 67.99,-112.05 29.31,-31.5 64.34,-56.25 105.08,-74.25 40.75,-18 86.31,-27 136.68,-27 50.36,0 96.15,9 137.35,27 41.21,18 76.47,42.75 105.77,74.25 29.31,31.5 51.97,68.85 67.99,112.05 16.03,43.2 24.04,90.45 24.04,141.75 0,47.7 -8.01,92.25 -24.04,133.65 -16.02,41.4 -38.68,77.63 -67.99,108.68 -29.3,31.04 -64.56,55.34 -105.77,72.9 -41.2,17.55 -86.99,26.32 -137.35,26.32 -50.37,0 -95.93,-8.77 -136.68,-26.32 -40.74,-17.56 -75.77,-41.86 -105.08,-72.9 -29.3,-31.05 -51.96,-67.28 -67.99,-108.68 -16.02,-41.4 -24.04,-85.95 -24.04,-133.65 z m -181.31,-10.8 c 0,76.5 12.81,146.03 38.46,208.58 25.63,62.54 61.12,115.87 106.45,159.97 45.32,44.1 99.36,78.07 162.08,101.92 62.74,23.85 131.64,35.78 206.73,35.78 76.01,0.9 145.61,-10.13 208.79,-33.08 63.18,-22.95 117.67,-56.47 163.46,-100.57 45.79,-44.1 81.5,-97.2 107.14,-159.31 25.64,-62.09 38.46,-131.39 38.46,-207.89 0,-74.7 -12.82,-142.65 -38.46,-203.85 -25.64,-61.2 -61.35,-113.85 -107.14,-157.95 -45.79,-44.1 -100.28,-78.53 -163.46,-103.28 -63.18,-24.75 -132.78,-37.57 -208.79,-38.47 -75.09,0 -143.99,11.92 -206.73,35.77 -62.72,23.86 -116.76,57.61 -162.08,101.25 -45.33,43.65 -80.82,96.08 -106.45,157.28 -25.65,61.2 -38.46,129.15 -38.46,203.85 z m -351.19,276.75 c -18.31,26.1 -42.81,45.22 -73.49,57.37 -30.67,12.16 -62.96,18.23 -96.83,18.23 -20.15,0 -39.61,-2.25 -58.38,-6.75 -18.78,-4.5 -35.72,-11.7 -50.83,-21.6 -15.11,-9.9 -27.24,-22.72 -36.4,-38.48 -9.15,-15.74 -13.73,-34.42 -13.73,-56.02 0,-32.4 11.44,-57.15 34.34,-74.25 22.89,-17.1 51.28,-31.95 85.16,-44.55 33.88,-12.6 70.97,-24.75 111.26,-36.45 40.3,-11.7 77.39,-27.9 111.26,-48.6 33.89,-20.7 62.28,-48.15 85.17,-82.35 22.89,-34.2 34.33,-79.65 34.33,-136.35 0,-51.3 -9.61,-96.08 -28.83,-134.33 -19.24,-38.24 -45.11,-69.97 -77.62,-95.17 -32.51,-25.2 -70.28,-44.1 -113.32,-56.7 -43.04,-12.6 -88.37,-18.9 -135.99,-18.9 -60.44,0 -118.58,9.9 -174.45,29.7 -55.86,19.8 -103.93,53.1 -144.22,99.9 l 130.49,124.2 c 21.06,-31.5 48.76,-56.03 83.1,-73.57 34.34,-17.56 70.75,-26.33 109.2,-26.33 20.15,0 40.3,2.7 60.44,8.1 20.15,5.4 38.46,13.5 54.94,24.3 16.49,10.8 29.77,24.52 39.84,41.17 10.08,16.65 15.11,35.78 15.11,57.38 0,35.1 -11.45,62.1 -34.34,81 -22.89,18.9 -51.28,34.87 -85.17,47.93 -33.87,13.04 -70.96,25.42 -111.26,37.12 -40.28,11.7 -77.37,27.68 -111.26,47.92 -33.88,20.25 -62.27,47.26 -85.16,81.01 -22.89,33.75 -34.34,78.97 -34.34,135.67 0,49.5 10.3,92.25 30.91,128.25 20.6,36 47.62,65.93 81.04,89.77 33.42,23.85 71.66,41.63 114.69,53.33 43.05,11.7 87,17.55 131.87,17.55 51.28,0 100.96,-7.65 149.03,-22.96 48.09,-15.29 91.35,-40.49 129.82,-75.59 l -126.38,-130.95 z m -1407.48,205.2 h 644.22 v -153.9 h -471.15 v -234.9 h 446.42 v -153.9 h -446.42 v -259.2 h 495.87 v -153.9 h -668.94 v 955.8 z m -649.261,-405 c 24.727,0 49.453,1.12 74.176,3.37 24.727,2.25 47.387,7.65 67.992,16.2 20.606,8.55 37.317,21.61 50.137,39.15 12.824,17.55 19.23,42.08 19.23,73.58 0,27.9 -5.949,50.4 -17.851,67.5 -11.91,17.1 -27.477,29.92 -46.703,38.47 -19.235,8.56 -40.524,14.18 -63.875,16.88 -23.356,2.7 -46.016,4.05 -67.992,4.05 H 329.34 v -259.2 h 134.609 z m -307.683,405 h 337.906 c 46.703,0 91.801,-4.28 135.297,-12.83 43.5,-8.55 82.187,-23.17 116.066,-43.87 33.883,-20.71 60.903,-48.6 81.047,-83.7 20.148,-35.1 30.219,-79.65 30.219,-133.65 0,-69.3 -19.457,-127.35 -58.379,-174.15 -38.914,-46.8 -94.551,-75.15 -166.895,-85.05 L 889.766,2150.82 H 680.98 l -225.273,405 H 329.34 v -405 H 156.266 v 955.8 z"
         clip-rule="evenodd"
         id="path32" />
    </clipPath>
    <clipPath
       clipPathUnits="userSpaceOnUse"
       id="clipPath40">
      <path
         d="M 68.2773,49.1406 9493.65,0 V 3720 L 68.2773,3769.14 Z"
         id="path38" />
    </clipPath>
    <clipPath
       clipPathUnits="userSpaceOnUse"
       id="clipPath50">
      <path
         d="m 8092.32,1666.61 h 644.22 V 1512.72 H 8265.4 v -234.91 h 446.42 V 1123.92 H 8265.4 V 864.719 h 495.86 V 710.82 h -668.94 v 955.79 z m -649.25,-405 c 24.73,0 49.44,1.14 74.17,3.38 24.73,2.25 47.39,7.65 68,16.2 20.6,8.56 37.31,21.61 50.14,39.15 12.81,17.55 19.22,42.07 19.22,73.58 0,27.9 -5.95,50.4 -17.86,67.5 -11.9,17.1 -27.47,29.92 -46.7,38.48 -19.22,8.54 -40.52,14.16 -63.87,16.87 -23.35,2.7 -46.02,4.05 -67.99,4.05 h -149.73 v -259.21 h 134.62 z m -307.69,405 h 337.91 c 46.7,0 91.79,-4.26 135.3,-12.82 43.49,-8.54 82.19,-23.17 116.06,-43.88 33.89,-20.69 60.9,-48.59 81.05,-83.69 20.14,-35.1 30.22,-79.66 30.22,-133.65 0,-69.31 -19.46,-127.35 -58.38,-174.15 -38.92,-46.81 -94.55,-75.16 -166.89,-85.05 l 258.23,-422.55 h -208.79 l -225.26,405 h -126.38 v -405 h -173.07 v 955.79 z M 6830.9,1061.82 c 0,-57.6 -10.07,-109.57 -30.22,-155.929 -20.15,-46.352 -47.62,-85.719 -82.41,-118.121 -34.81,-32.411 -76.01,-57.379 -123.63,-74.93 -47.62,-17.539 -99.36,-26.32 -155.22,-26.32 -55.86,0 -107.6,8.781 -155.22,26.32 -47.61,17.551 -89.05,42.519 -124.3,74.93 -35.27,32.402 -62.74,71.769 -82.42,118.121 -19.69,46.359 -29.54,98.329 -29.54,155.929 v 604.79 h 173.08 v -599.39 c 0,-23.4 3.66,-47.93 10.99,-73.572 7.32,-25.656 19.46,-49.277 36.39,-70.878 16.95,-21.61 39.39,-39.379 67.32,-53.321 27.93,-13.957 62.5,-20.929 103.7,-20.929 41.21,0 75.78,6.972 103.71,20.929 27.93,13.942 50.36,31.711 67.3,53.321 16.95,21.601 29.08,45.222 36.41,70.878 7.33,25.642 10.99,50.172 10.99,73.572 v 599.39 h 173.07 v -604.79 z m -1459.68,450.9 h -298.07 v 153.89 h 769.22 v -153.89 h -298.08 v -801.9 h -173.07 v 801.9 z m -503.66,-450.9 c 0,-57.6 -10.06,-109.57 -30.21,-155.929 -20.15,-46.352 -47.62,-85.719 -82.42,-118.121 -34.8,-32.411 -76.01,-57.379 -123.63,-74.93 -47.61,-17.539 -99.35,-26.32 -155.21,-26.32 -55.86,0 -107.6,8.781 -155.22,26.32 -47.61,17.551 -89.05,42.519 -124.31,74.93 -35.26,32.402 -62.73,71.769 -82.41,118.121 -19.69,46.359 -29.54,98.329 -29.54,155.929 v 604.79 h 173.08 v -599.39 c 0,-23.4 3.66,-47.93 10.99,-73.572 7.32,-25.656 19.45,-49.277 36.39,-70.878 16.95,-21.61 39.38,-39.379 67.31,-53.321 27.93,-13.957 62.5,-20.929 103.71,-20.929 41.21,0 75.77,6.972 103.71,20.929 27.93,13.942 50.36,31.711 67.3,53.321 16.94,21.601 29.08,45.222 36.4,70.878 7.33,25.642 10.99,50.172 10.99,73.572 v 599.39 h 173.07 v -604.79 z m -1658.84,604.79 h 627.73 v -153.89 h -454.67 v -251.11 h 428.57 v -153.89 h -428.57 v -396.9 h -173.06 v 955.79 z"
         clip-rule="evenodd"
         id="path48" />
    </clipPath>
    <clipPath
       clipPathUnits="userSpaceOnUse"
       id="clipPath56">
      <path
         d="M 68.2773,49.1406 9493.65,0 V 3720 L 68.2773,3769.14 Z"
         id="path54" />
    </clipPath>
  </defs>
  <sodipodi:namedview
     id="namedview4"
     pagecolor="#ffffff"
     bordercolor="#000000"
     borderopacity="0.25"
     inkscape:showpageshadow="2"
     inkscape:pageopacity="0.0"
     inkscape:pagecheckerboard="0"
     inkscape:deskcolor="#d1d1d1" />
  <g
     id="g8"
     inkscape:groupmode="layer"
     inkscape:label="ink_ext_XXXXXX"
     transform="matrix(1.3333333,0,0,-1.3333333,0,502.54667)">
    <g
       id="g10"
       transform="scale(0.1)">
      <g
         id="g12">
        <g
           id="g14"
           clip-path="url(#clipPath18)">
          <g
             id="g20"
             clip-path="url(#clipPath24)">
            <path
               d="M -81.7227,1626.98 H 3027.51 V 394.059 H -81.7227 V 1626.98"
               style="fill:#ffffff;fill-opacity:1;fill-rule:nonzero;stroke:none"
               id="path26" />
          </g>
        </g>
      </g>
      <g
         id="g28">
        <g
           id="g30"
           clip-path="url(#clipPath34)">
          <g
             id="g36"
             clip-path="url(#clipPath40)">
            <path
               d="M 6.26563,3280.97 H 8921.95 V 1976.52 H 6.26563 v 1304.45"
               style="fill:#ffffff;fill-opacity:1;fill-rule:nonzero;stroke:none"
               id="path42" />
          </g>
        </g>
      </g>
      <g
         id="g44">
        <g
           id="g46"
           clip-path="url(#clipPath50)">
          <g
             id="g52"
             clip-path="url(#clipPath56)">
            <path
               d="M 3058.72,1816.61 H 8911.26 V 536.52 H 3058.72 v 1280.09"
               style="fill:#ffffff;fill-opacity:1;fill-rule:nonzero;stroke:none"
               id="path58" />
          </g>
        </g>
      </g>
    </g>
  </g>
</svg>
