<?xml version="1.0" encoding="UTF-8" standalone="no"?>
<!-- Created with Inkscape (http://www.inkscape.org/) -->

<svg
   version="1.1"
   id="svg2"
   width="1748.8933"
   height="344.92001"
   viewBox="0 0 1748.8933 344.92001"
   sodipodi:docname="white-logomark-horizontal.eps"
   xmlns:inkscape="http://www.inkscape.org/namespaces/inkscape"
   xmlns:sodipodi="http://sodipodi.sourceforge.net/DTD/sodipodi-0.dtd"
   xmlns="http://www.w3.org/2000/svg"
   xmlns:svg="http://www.w3.org/2000/svg">
  <defs
     id="defs6">
    <clipPath
       clipPathUnits="userSpaceOnUse"
       id="clipPath18">
      <path
         d="m 7128.52,669.121 c -20.84,0 -44.13,-12 -69.85,-36 -25.72,-24 -49.81,-55.84 -72.28,-95.531 -22.46,-39.668 -39.55,-81.91 -51.28,-126.719 61.86,21.129 106.14,41.609 132.84,61.449 24.1,18.551 42.82,41.11 56.17,67.68 13.35,26.559 20.02,55.199 20.02,85.91 0,17.289 -1.3,28.809 -3.91,34.559 -2.6,5.769 -6.51,8.652 -11.71,8.652 z M 7222.29,624 c 0,-51.852 -29.63,-97.289 -88.89,-136.32 -59.26,-39.039 -126.98,-70.719 -203.18,-95.051 -7.15,-31.988 -10.74,-63.027 -10.74,-93.109 0,-61.438 22.46,-92.161 67.4,-92.161 56,0 106.15,32 150.42,96 l 15.63,-7.679 c -20.84,-35.211 -49,-65.442 -84.49,-90.719 -35.49,-25.289 -72.77,-37.922 -111.84,-37.922 -40.38,0 -71.96,11.52 -94.74,34.563 -22.8,23.027 -34.19,56.64 -34.19,100.796 0,48.641 14.48,103.512 43.46,164.641 28.98,61.121 68.22,113.121 117.7,155.992 49.49,42.879 103.21,64.328 161.17,64.328 20.84,0 38.1,-5.437 51.77,-16.32 13.68,-10.879 20.52,-26.559 20.52,-47.039 z m -467.4,-288 -24.42,-70.09 c -23.44,-65.91 -62.83,-98.871 -118.18,-98.871 -45.59,0 -68.38,19.84 -68.38,59.52 0,19.203 5.21,44.16 15.63,74.882 L 6652.33,576 c 6.52,17.922 9.77,33.922 9.77,48 0,21.762 -10.42,32.641 -31.26,32.641 -24.09,0 -49.98,-14.891 -77.65,-44.641 -27.68,-29.758 -55.51,-71.531 -83.52,-125.289 -28,-53.762 -54.04,-116.152 -78.14,-187.191 l -35.16,-119.051 h -84.98 l 193.4,640.332 c 1.04,3.469 4.52,14.949 10.45,34.437 1.38,4.551 6.42,20.934 15.1,49.133 l 90.74,28.551 c -0.61,-2.391 -1.3,-4.883 -2.08,-7.461 -20.61,-69.289 -66.17,-221.941 -136.68,-457.941 35.17,78.082 70.33,134.23 105.5,168.48 35.16,34.238 73.58,51.359 115.26,51.359 52.74,0 79.12,-24.328 79.12,-72.961 0,-20.476 -4.89,-44.476 -14.66,-72 l -94.75,-280.316 c -5.2,-15.371 -7.81,-27.523 -7.81,-36.48 0,-15.364 7.81,-23.051 23.45,-23.051 13.02,0 25.55,7.211 37.61,21.609 12.04,14.399 24.58,39.84 37.59,76.309 L 6736.34,336 h 18.55 z m -696.93,-73.918 c -1.95,-7.684 -2.93,-14.723 -2.93,-21.133 0,-12.789 3.91,-22.39 11.72,-28.801 7.81,-6.386 17.91,-9.597 30.28,-9.597 16.28,0 31.42,6.89 45.42,20.648 14,13.762 27.84,38.883 41.51,75.36 L 6197.64,336 h 18.56 l -20.52,-60.488 c -13.67,-39.672 -31.41,-67.672 -53.23,-83.992 -21.82,-16.321 -48.68,-24.481 -80.58,-24.481 -29.31,0 -51.12,7.043 -65.45,21.121 -14.33,14.082 -21.49,33.59 -21.49,58.551 0,16.648 2.93,34.891 8.79,54.73 l 103.54,353.278 h -87.91 l 4.88,19.203 h 87.92 c 17.89,60.547 29.61,100.238 35.16,119.078 l 91.55,27.801 c -5.69,-19.52 -19.6,-68.469 -41.74,-146.879 h 128.94 l -2.93,-19.203 h -131.87 l -113.3,-392.637 z m -420.02,425.277 c 17.58,0 31.59,-5.117 42,-15.359 10.42,-10.25 15.63,-23.359 15.63,-39.359 0,-19.211 -6.83,-35.52 -20.51,-48.961 -13.67,-13.442 -29.63,-20.16 -47.86,-20.16 -11.73,0 -21.16,3.039 -28.33,9.121 -7.16,6.078 -10.74,14.55 -10.74,25.441 0,14.719 3.9,27.199 11.72,37.43 7.81,10.25 18.56,18.25 32.23,24.008 -2.6,2.562 -6.19,3.839 -10.74,3.839 -35.17,0 -73.42,-37.277 -114.78,-111.839 -41.35,-74.559 -80.26,-172.961 -116.72,-295.211 l -19.54,-75.84 h -84.98 l 117.22,411.851 c 4.55,14.078 6.84,26.551 6.84,37.442 0,14.718 -6.84,22.078 -20.52,22.078 -14.32,0 -27.51,-7.52 -39.56,-22.57 -12.04,-15.04 -24.26,-40.149 -36.63,-75.348 l -12.69,-35.531 h -18.56 l 24.41,70.089 c 23.45,65.918 62.85,98.879 118.19,98.879 37.12,0 55.68,-18.57 55.68,-55.679 0,-17.918 -4.55,-44.16 -13.67,-78.731 L 5434.77,432 c 35.17,92.801 68.21,158.559 99.15,197.27 30.92,38.722 65.6,58.089 104.02,58.089 z M 5060.18,668.16 c -33.22,0 -64.64,-20.801 -94.27,-62.398 -29.63,-41.602 -53.39,-93.614 -71.3,-156 -17.91,-62.403 -26.86,-122.403 -26.86,-180 0,-28.813 4.55,-49.922 13.68,-63.364 9.11,-13.449 23.11,-20.156 41.99,-20.156 33.22,0 64.64,20.797 94.27,62.399 29.62,41.597 53.39,93.601 71.3,155.988 17.9,62.41 26.86,122.41 26.86,180 0,28.801 -4.56,49.93 -13.67,63.363 -9.12,13.449 -23.12,20.168 -42,20.168 z M 4783.75,317.762 c 0,50.558 11.39,104.789 34.18,162.707 22.79,57.922 55.68,106.89 98.66,146.89 42.98,40 92.79,60 149.45,60 41.67,0 74.39,-12.64 98.16,-37.918 23.77,-25.281 35.65,-62.882 35.65,-112.8 0,-50.559 -11.39,-104.801 -34.19,-162.719 -22.78,-57.922 -55.67,-106.883 -98.65,-146.883 -42.98,-40 -92.79,-60 -149.45,-60 -41.67,0 -74.4,12.633 -98.17,37.922 -23.76,25.277 -35.64,62.879 -35.64,112.801 z m 34.67,613.437 c 28.65,0 51.28,-6.398 67.89,-19.199 16.6,-12.801 24.91,-29.121 24.91,-48.969 0,-16.633 -6.36,-31.832 -19.05,-45.59 -12.7,-13.761 -28.17,-20.652 -46.4,-20.652 -12.37,0 -22.14,2.883 -29.31,8.652 -7.16,5.758 -10.42,13.758 -9.76,24 0,15.36 5.05,28.641 15.14,39.829 10.09,11.199 23.6,19.371 40.53,24.492 0,5.758 -4.39,11.039 -13.18,15.84 -8.79,4.796 -19.38,7.187 -31.75,7.187 -19.53,0 -38.42,-8.309 -56.65,-24.949 -13.68,-12.168 -25.07,-31.52 -34.19,-58.078 -9.11,-26.571 -20.51,-65.77 -34.18,-117.602 l -10.75,-41.281 v -0.957 h 115.26 l -5.86,-19.203 H 4675.81 L 4500.97,13.4297 C 4465.8,12.1484 4436.5,7.67969 4413.06,0 l 177.77,654.719 h -87.91 l 5.86,19.203 h 87.91 v 0.957 c 14.33,52.48 29.14,95.191 44.44,128.152 15.31,32.969 33.7,59.688 55.19,80.168 14.98,14.723 33.38,26.403 55.19,35.039 21.82,8.641 44.12,12.961 66.91,12.961 z"
         clip-rule="evenodd"
         id="path16" />
    </clipPath>
    <clipPath
       clipPathUnits="userSpaceOnUse"
       id="clipPath24">
      <path
         d="M -621.57,-544.059 H 13838.4 V 3175.94 H -621.57 Z"
         id="path22" />
    </clipPath>
    <clipPath
       clipPathUnits="userSpaceOnUse"
       id="clipPath34">
      <path
         d="M 0,0 H 13116.7 V 2586.91 H 0 Z"
         id="path32" />
    </clipPath>
    <clipPath
       clipPathUnits="userSpaceOnUse"
       id="clipPath40">
      <path
         d="m 12984.9,2357.36 c -18.3,26.1 -42.8,45.23 -73.5,57.37 -30.7,12.16 -63,18.23 -96.9,18.23 -20.1,0 -39.6,-2.25 -58.3,-6.75 -18.8,-4.5 -35.8,-11.7 -50.9,-21.6 -15.1,-9.9 -27.2,-22.72 -36.4,-38.48 -9.1,-15.74 -13.7,-34.42 -13.7,-56.02 0,-32.4 11.5,-57.15 34.3,-74.25 22.9,-17.1 51.3,-31.95 85.2,-44.55 33.9,-12.6 71,-24.75 111.3,-36.45 40.3,-11.7 77.3,-27.9 111.2,-48.6 33.9,-20.7 62.3,-48.15 85.2,-82.35 22.9,-34.2 34.3,-79.65 34.3,-136.35 0,-51.3 -9.6,-96.08 -28.8,-134.33 -19.2,-38.25 -45.1,-69.97 -77.6,-95.17 -32.5,-25.2 -70.3,-44.1 -113.3,-56.7 -43.1,-12.6 -88.4,-18.9 -136,-18.9 -60.5,0 -118.6,9.9 -174.5,29.7 -55.8,19.8 -103.9,53.1 -144.2,99.9 l 130.5,124.2 c 21,-31.5 48.7,-56.03 83.1,-73.57 34.3,-17.56 70.7,-26.33 109.2,-26.33 20.1,0 40.3,2.7 60.4,8.1 20.2,5.4 38.5,13.5 55,24.3 16.5,10.8 29.7,24.52 39.8,41.17 10.1,16.65 15.1,35.78 15.1,57.38 0,35.1 -11.4,62.1 -34.3,81 -22.9,18.9 -51.3,34.87 -85.2,47.92 -33.9,13.06 -71,25.43 -111.3,37.13 -40.2,11.7 -77.3,27.68 -111.2,47.93 -33.9,20.25 -62.3,47.25 -85.2,81 -22.9,33.75 -34.3,78.97 -34.3,135.67 0,49.5 10.3,92.25 30.9,128.25 20.6,36 47.6,65.93 81,89.77 33.5,23.86 71.7,41.63 114.7,53.33 43.1,11.7 87,17.55 131.9,17.55 51.3,0 101,-7.65 149,-22.95 48.1,-15.3 91.4,-40.5 129.8,-75.6 l -126.3,-130.95 z m -1407.5,205.2 h 644.2 v -153.9 h -471.2 v -234.9 h 446.5 v -153.9 h -446.5 v -259.2 h 495.9 v -153.9 h -668.9 v 955.8 z m -364.9,-224.1 c -35.8,37.8 -70.3,63 -103.7,75.6 -33.5,12.6 -67.1,18.9 -101,18.9 -50.4,0 -95.9,-8.78 -136.7,-26.32 -40.7,-17.56 -75.8,-41.85 -105.1,-72.91 -29.3,-31.04 -51.9,-67.27 -68,-108.67 -16,-41.4 -24,-85.95 -24,-133.65 0,-51.3 8,-98.55 24,-141.75 16.1,-43.2 38.7,-80.55 68,-112.05 29.3,-31.5 64.4,-56.25 105.1,-74.25 40.8,-18 86.3,-27 136.7,-27 39.4,0 77.6,9.22 114.7,27.68 37.1,18.44 71.6,47.92 103.7,88.42 l 142.9,-99.9 c -44,-59.4 -97.6,-102.6 -160.8,-129.6 -63.1,-27 -130.4,-40.5 -201.9,-40.5 -75.1,0 -144,11.93 -206.7,35.77 -62.7,23.86 -116.8,57.61 -162.1,101.25 -45.3,43.66 -80.8,96.08 -106.4,157.28 -25.7,61.2 -38.5,129.15 -38.5,203.85 0,76.5 12.8,146.03 38.5,208.57 25.6,62.55 61.1,115.88 106.4,159.98 45.3,44.1 99.4,78.07 162.1,101.93 62.7,23.84 131.6,35.77 206.7,35.77 66,0 127.1,-11.47 183.4,-34.43 56.3,-22.95 108.7,-61.87 157.3,-116.77 l -134.6,-97.2 z m -1316.87,-180.9 c 24.73,0 49.46,1.12 74.17,3.37 24.73,2.25 47.4,7.66 68,16.21 20.6,8.54 37.3,21.59 50.1,39.15 12.9,17.55 19.3,42.07 19.3,73.57 0,27.9 -6,50.4 -17.9,67.5 -11.9,17.1 -27.5,29.93 -46.7,38.48 -19.2,8.55 -40.5,14.17 -63.86,16.87 -23.35,2.7 -46.02,4.05 -68,4.05 h -149.71 v -259.2 h 134.6 z m -307.68,405 h 337.91 c 46.7,0 91.84,-4.28 135.34,-12.83 43.4,-8.55 82.1,-23.17 116,-43.87 33.9,-20.7 60.9,-48.6 81.1,-83.7 20.1,-35.1 30.2,-79.65 30.2,-133.65 0,-69.3 -19.5,-127.35 -58.4,-174.15 -38.9,-46.8 -94.5,-75.15 -166.9,-85.05 l 258.2,-422.55 h -208.7 l -225.31,405 h -126.36 v -405 h -173.08 v 955.8 z m -304.48,-604.8 c 0,-57.6 -10.07,-109.58 -30.22,-155.93 -20.14,-46.35 -47.62,-85.72 -82.42,-118.12 -34.79,-32.4 -76.01,-57.37 -123.62,-74.92 -47.62,-17.56 -99.36,-26.33 -155.22,-26.33 -55.86,0 -107.6,8.77 -155.21,26.33 -47.62,17.55 -89.07,42.52 -124.32,74.92 -35.25,32.4 -62.72,71.77 -82.41,118.12 -19.69,46.35 -29.53,98.33 -29.53,155.93 v 604.8 h 173.06 v -599.4 c 0,-23.4 3.67,-47.93 11,-73.57 7.32,-25.65 19.45,-49.28 36.4,-70.88 16.94,-21.6 39.37,-39.37 67.3,-53.32 27.93,-13.95 62.5,-20.93 103.71,-20.93 41.21,0 75.77,6.98 103.7,20.93 27.94,13.95 50.37,31.72 67.32,53.32 16.93,21.6 29.07,45.23 36.39,70.88 7.33,25.64 10.99,50.17 10.99,73.57 v 599.4 h 173.08 v -604.8 z m -1885.5,133.65 c 0,-51.3 8.02,-98.55 24.04,-141.75 16.03,-43.2 38.69,-80.55 67.99,-112.05 29.31,-31.5 64.34,-56.25 105.08,-74.25 40.75,-18 86.31,-27 136.68,-27 50.36,0 96.15,9 137.35,27 41.21,18 76.47,42.75 105.77,74.25 29.31,31.5 51.97,68.85 67.99,112.05 16.03,43.2 24.04,90.45 24.04,141.75 0,47.7 -8.01,92.25 -24.04,133.65 -16.02,41.4 -38.68,77.63 -67.99,108.67 -29.3,31.06 -64.56,55.35 -105.77,72.91 -41.2,17.54 -86.99,26.32 -137.35,26.32 -50.37,0 -95.93,-8.78 -136.68,-26.32 -40.74,-17.56 -75.77,-41.85 -105.08,-72.91 -29.3,-31.04 -51.96,-67.27 -67.99,-108.67 -16.02,-41.4 -24.04,-85.95 -24.04,-133.65 z m -181.31,-10.8 c 0,76.5 12.81,146.03 38.46,208.57 25.63,62.55 61.12,115.88 106.45,159.98 45.32,44.1 99.36,78.07 162.08,101.93 62.74,23.84 131.64,35.77 206.73,35.77 76.01,0.9 145.61,-10.13 208.79,-33.07 63.18,-22.95 117.67,-56.48 163.46,-100.58 45.79,-44.1 81.5,-97.2 107.14,-159.3 25.64,-62.1 38.46,-131.4 38.46,-207.9 0,-74.7 -12.82,-142.65 -38.46,-203.85 -25.64,-61.2 -61.35,-113.85 -107.14,-157.95 -45.79,-44.1 -100.28,-78.53 -163.46,-103.28 -63.18,-24.75 -132.78,-37.57 -208.79,-38.47 -75.09,0 -143.99,11.93 -206.73,35.77 -62.72,23.86 -116.76,57.61 -162.08,101.25 -45.33,43.66 -80.82,96.08 -106.45,157.28 -25.65,61.2 -38.46,129.15 -38.46,203.85 z m -351.19,276.75 c -18.31,26.1 -42.81,45.23 -73.49,57.37 -30.67,12.16 -62.96,18.23 -96.83,18.23 -20.15,0 -39.61,-2.25 -58.38,-6.75 -18.78,-4.5 -35.72,-11.7 -50.83,-21.6 -15.11,-9.9 -27.24,-22.72 -36.4,-38.48 -9.15,-15.74 -13.73,-34.42 -13.73,-56.02 0,-32.4 11.44,-57.15 34.34,-74.25 22.89,-17.1 51.28,-31.95 85.16,-44.55 33.88,-12.6 70.97,-24.75 111.26,-36.45 40.3,-11.7 77.39,-27.9 111.26,-48.6 33.89,-20.7 62.28,-48.15 85.17,-82.35 22.89,-34.2 34.33,-79.65 34.33,-136.35 0,-51.3 -9.61,-96.08 -28.83,-134.33 -19.24,-38.25 -45.11,-69.97 -77.62,-95.17 -32.51,-25.2 -70.28,-44.1 -113.32,-56.7 -43.04,-12.6 -88.37,-18.9 -135.99,-18.9 -60.44,0 -118.58,9.9 -174.45,29.7 -55.86,19.8 -103.93,53.1 -144.22,99.9 l 130.49,124.2 c 21.06,-31.5 48.76,-56.03 83.1,-73.57 34.34,-17.56 70.75,-26.33 109.2,-26.33 20.15,0 40.3,2.7 60.44,8.1 20.15,5.4 38.46,13.5 54.94,24.3 16.49,10.8 29.77,24.52 39.84,41.17 10.08,16.65 15.11,35.78 15.11,57.38 0,35.1 -11.45,62.1 -34.34,81 -22.89,18.9 -51.28,34.87 -85.17,47.92 -33.87,13.06 -70.96,25.43 -111.26,37.13 -40.28,11.7 -77.37,27.68 -111.26,47.93 -33.88,20.25 -62.27,47.25 -85.16,81 -22.89,33.75 -34.34,78.97 -34.34,135.67 0,49.5 10.3,92.25 30.91,128.25 20.6,36 47.62,65.93 81.04,89.77 33.42,23.86 71.66,41.63 114.69,53.33 43.05,11.7 87,17.55 131.87,17.55 51.28,0 100.96,-7.65 149.03,-22.95 48.09,-15.3 91.35,-40.5 129.82,-75.6 l -126.38,-130.95 z m -1407.48,205.2 h 644.22 v -153.9 h -471.15 v -234.9 h 446.42 v -153.9 h -446.42 v -259.2 h 495.87 v -153.9 h -668.94 v 955.8 z m -649.26,-405 c 24.73,0 49.45,1.12 74.18,3.37 24.72,2.25 47.38,7.66 67.99,16.21 20.6,8.54 37.31,21.59 50.14,39.15 12.82,17.55 19.22,42.07 19.22,73.57 0,27.9 -5.94,50.4 -17.85,67.5 -11.91,17.1 -27.47,29.93 -46.7,38.48 -19.24,8.55 -40.52,14.17 -63.87,16.87 -23.36,2.7 -46.02,4.05 -68,4.05 h -149.72 v -259.2 h 134.61 z m -307.69,405 h 337.91 c 46.7,0 91.8,-4.28 135.3,-12.83 43.5,-8.55 82.19,-23.17 116.07,-43.87 33.88,-20.7 60.9,-48.6 81.04,-83.7 20.15,-35.1 30.22,-79.65 30.22,-133.65 0,-69.3 -19.46,-127.35 -58.38,-174.15 -38.91,-46.8 -94.55,-75.15 -166.89,-85.05 l 258.24,-422.55 h -208.79 l -225.27,405 h -126.37 v -405 h -173.08 v 955.8 z"
         clip-rule="evenodd"
         id="path38" />
    </clipPath>
    <clipPath
       clipPathUnits="userSpaceOnUse"
       id="clipPath46">
      <path
         d="M -621.57,-544.059 H 13838.4 V 3175.94 H -621.57 Z"
         id="path44" />
    </clipPath>
    <clipPath
       clipPathUnits="userSpaceOnUse"
       id="clipPath56">
      <path
         d="m 12437.1,1122.55 h 644.2 V 968.66 h -471.1 V 733.762 h 446.4 V 579.859 h -446.4 V 320.66 H 13106 V 166.762 h -668.9 v 955.788 z m -649.2,-404.999 c 24.7,0 49.4,1.14 74.1,3.379 24.7,2.25 47.4,7.652 68,16.199 20.6,8.562 37.3,21.609 50.2,39.152 12.8,17.551 19.2,42.078 19.2,73.578 0,27.903 -6,50.403 -17.9,67.5 -11.9,17.102 -27.4,29.922 -46.7,38.481 -19.2,8.539 -40.5,14.172 -63.9,16.871 -23.3,2.699 -46,4.051 -67.9,4.051 h -149.8 V 717.551 h 134.7 z m -307.7,404.999 h 337.9 c 46.7,0 91.8,-4.26 135.3,-12.82 43.5,-8.54 82.2,-23.17 116,-43.87 33.9,-20.7 60.9,-48.6 81.1,-83.7 20.1,-35.101 30.2,-79.648 30.2,-133.648 0,-69.313 -19.5,-127.352 -58.4,-174.153 -38.9,-46.808 -94.5,-75.16 -166.9,-85.05 l 258.3,-422.547 h -208.8 l -225.3,405 h -126.4 v -405 h -173 v 955.788 z m -304.5,-604.788 c 0,-57.602 -10.1,-109.571 -30.2,-155.93 -20.2,-46.352 -47.7,-85.723 -82.5,-118.121 -34.8,-32.41 -76,-57.379 -123.6,-74.93 -47.6,-17.539 -99.3,-26.32 -155.2,-26.32 -55.9,0 -107.6,8.781 -155.2,26.32 -47.6,17.551 -89.1,42.52 -124.3,74.93 -35.3,32.398 -62.8,71.769 -82.4,118.121 -19.7,46.359 -29.6,98.328 -29.6,155.93 v 604.788 h 173.1 V 523.16 c 0,-23.398 3.7,-47.93 11,-73.57 7.3,-25.66 19.5,-49.281 36.4,-70.879 16.9,-21.602 39.4,-39.379 67.3,-53.32 27.9,-13.961 62.5,-20.93 103.7,-20.93 41.2,0 75.8,6.969 103.7,20.93 27.9,13.941 50.4,31.718 67.3,53.32 17,21.598 29.1,45.219 36.4,70.879 7.3,25.64 11,50.172 11,73.57 v 599.39 h 173.1 V 517.762 Z M 9716,968.66 h -298.07 v 153.89 h 769.17 V 968.66 H 9889.07 V 166.762 H 9716 V 968.66 Z M 9212.34,517.762 c 0,-57.602 -10.06,-109.571 -30.21,-155.93 -20.15,-46.352 -47.62,-85.723 -82.42,-118.121 -34.8,-32.41 -76.01,-57.379 -123.63,-74.93 -47.61,-17.539 -99.35,-26.32 -155.21,-26.32 -55.86,0 -107.6,8.781 -155.22,26.32 -47.61,17.551 -89.05,42.52 -124.31,74.93 -35.26,32.398 -62.73,71.769 -82.41,118.121 -19.69,46.359 -29.54,98.328 -29.54,155.93 v 604.788 h 173.08 V 523.16 c 0,-23.398 3.66,-47.93 10.99,-73.57 7.32,-25.66 19.45,-49.281 36.39,-70.879 16.95,-21.602 39.38,-39.379 67.31,-53.32 27.93,-13.961 62.5,-20.93 103.71,-20.93 41.21,0 75.77,6.969 103.71,20.93 27.93,13.941 50.36,31.718 67.3,53.32 16.94,21.598 29.08,45.219 36.4,70.879 7.33,25.64 10.99,50.172 10.99,73.57 v 599.39 h 173.07 V 517.762 Z M 7553.5,1122.55 h 627.73 V 968.66 H 7726.56 V 717.551 h 428.57 V 563.66 H 7726.56 V 166.762 H 7553.5 v 955.788 z"
         clip-rule="evenodd"
         id="path54" />
    </clipPath>
    <clipPath
       clipPathUnits="userSpaceOnUse"
       id="clipPath62">
      <path
         d="M -621.57,-544.059 H 13838.4 V 3175.94 H -621.57 Z"
         id="path60" />
    </clipPath>
    <clipPath
       clipPathUnits="userSpaceOnUse"
       id="clipPath72">
      <path
         d="M 8.21875,280.371 1306.97,2548.86 c 17.07,29.81 55.07,40.14 84.88,23.07 9.62,-5.51 17.61,-13.5 23.11,-23.14 l 348.93,-611.45 509.5,-892.79 -473.49,-826.011 c -11.09,-19.34 -31.67,-31.258 -53.96,-31.258 H 62.1914 C 27.8438,187.281 0,215.121 0,249.469 c 0,10.84 2.83203,21.492 8.21875,30.902 z"
         id="path70" />
    </clipPath>
    <clipPath
       clipPathUnits="userSpaceOnUse"
       id="clipPath78">
      <path
         d="M -621.57,-544.059 H 13838.4 V 3175.94 H -621.57 Z"
         id="path76" />
    </clipPath>
    <clipPath
       clipPathUnits="userSpaceOnUse"
       id="clipPath88">
      <path
         d="M 2273.29,1044.47 2710,1809.22 c 17.03,29.83 55.02,40.21 84.85,23.17 9.65,-5.51 17.65,-13.51 23.16,-23.17 L 3690.95,280.309 c 17.02,-29.84 6.65,-67.809 -23.18,-84.848 -9.39,-5.359 -20.02,-8.18 -30.83,-8.18 h -836.87 c -22.3,0 -42.89,11.93 -53.97,31.289 l -472.81,825.9 z"
         id="path86" />
    </clipPath>
    <clipPath
       clipPathUnits="userSpaceOnUse"
       id="clipPath94">
      <path
         d="M -621.57,-544.059 H 13838.4 V 3175.94 H -621.57 Z"
         id="path92" />
    </clipPath>
  </defs>
  <sodipodi:namedview
     id="namedview4"
     pagecolor="#ffffff"
     bordercolor="#000000"
     borderopacity="0.25"
     inkscape:showpageshadow="2"
     inkscape:pageopacity="0.0"
     inkscape:pagecheckerboard="0"
     inkscape:deskcolor="#d1d1d1" />
  <g
     id="g8"
     inkscape:groupmode="layer"
     inkscape:label="ink_ext_XXXXXX"
     transform="matrix(1.3333333,0,0,-1.3333333,0,344.92)">
    <g
       id="g10"
       transform="scale(0.1)">
      <g
         id="g12">
        <g
           id="g14"
           clip-path="url(#clipPath18)">
          <g
             id="g20"
             clip-path="url(#clipPath24)">
            <path
               d="M 4263.06,1082.92 H 7372.29 V -150 H 4263.06 v 1232.92"
               style="fill:#ffffff;fill-opacity:1;fill-rule:nonzero;stroke:none"
               id="path26" />
          </g>
        </g>
      </g>
      <g
         id="g28">
        <g
           id="g30"
           clip-path="url(#clipPath34)">
          <g
             id="g36"
             clip-path="url(#clipPath40)">
            <g
               id="g42"
               clip-path="url(#clipPath46)">
              <path
                 d="M 4351.04,2736.91 H 13266.7 V 1432.46 H 4351.04 v 1304.45"
                 style="fill:#ffffff;fill-opacity:1;fill-rule:nonzero;stroke:none"
                 id="path48" />
            </g>
          </g>
        </g>
      </g>
      <g
         id="g50">
        <g
           id="g52"
           clip-path="url(#clipPath56)">
          <g
             id="g58"
             clip-path="url(#clipPath62)">
            <path
               d="M 7403.5,1272.55 H 13256 V -7.53906 H 7403.5 V 1272.55"
               style="fill:#ffffff;fill-opacity:1;fill-rule:nonzero;stroke:none"
               id="path64" />
          </g>
        </g>
      </g>
      <g
         id="g66">
        <g
           id="g68"
           clip-path="url(#clipPath72)">
          <g
             id="g74"
             clip-path="url(#clipPath78)">
            <path
               d="M -150,2730.16 H 2423.39 V 37.2813 H -150 V 2730.16"
               style="fill:#ffffff;fill-opacity:1;fill-rule:nonzero;stroke:none"
               id="path80" />
          </g>
        </g>
      </g>
      <g
         id="g82">
        <g
           id="g84"
           clip-path="url(#clipPath88)">
          <g
             id="g90"
             clip-path="url(#clipPath94)">
            <path
               d="M 2123.29,1990.59 H 3849.14 V 37.2813 H 2123.29 V 1990.59"
               style="fill:#ffffff;fill-opacity:1;fill-rule:nonzero;stroke:none"
               id="path96" />
          </g>
        </g>
      </g>
    </g>
  </g>
</svg>
