<?xml version="1.0" encoding="UTF-8" standalone="no"?>
<!-- Created with Inkscape (http://www.inkscape.org/) -->

<svg
   version="1.1"
   id="svg2"
   width="200.65334"
   height="54.493332"
   viewBox="0 0 200.65334 54.493332"
   sodipodi:docname="white-rff-small-RFF-logomark.eps"
   xmlns:inkscape="http://www.inkscape.org/namespaces/inkscape"
   xmlns:sodipodi="http://sodipodi.sourceforge.net/DTD/sodipodi-0.dtd"
   xmlns="http://www.w3.org/2000/svg"
   xmlns:svg="http://www.w3.org/2000/svg">
  <defs
     id="defs6">
    <clipPath
       clipPathUnits="userSpaceOnUse"
       id="clipPath18">
      <path
         d="m 1369.54,60.7461 h -60.97 V 355.469 h 196.33 v -53.758 h -135.36 v -74.879 h 125.27 V 173.551 H 1369.54 V 60.7461 Z m -240.48,0 H 1068.1 V 355.469 h 196.31 v -53.758 h -135.35 v -74.879 h 125.28 V 173.551 H 1129.06 V 60.7461 Z M 858.816,303.148 V 221.07 h 56.645 c 30.723,0 46.559,16.317 46.559,40.801 0,24.961 -15.836,41.277 -46.559,41.277 h -56.645 z m 32.161,-132.48 H 858.816 V 60.7461 H 797.859 V 355.469 h 121.438 c 61.926,0 103.203,-33.121 103.203,-93.598 0,-47.043 -25.918,-76.797 -67.195,-86.887 L 1033.06,60.7461 H 963.938 L 890.977,170.668 Z"
         clip-rule="evenodd"
         id="path16" />
    </clipPath>
    <clipPath
       clipPathUnits="userSpaceOnUse"
       id="clipPath24">
      <path
         d="M -5.44531,-29.2539 H 1524.55 V 420.754 H -5.44531 Z"
         id="path22" />
    </clipPath>
    <clipPath
       clipPathUnits="userSpaceOnUse"
       id="clipPath34">
      <path
         d="M 0,0 H 1504.9 V 408.727 H 0 Z"
         id="path32" />
    </clipPath>
    <clipPath
       clipPathUnits="userSpaceOnUse"
       id="clipPath40">
      <path
         d="M 1.40625,15.9023 223.242,403.379 c 2.914,5.094 9.403,6.855 14.496,3.941 1.649,-0.941 3.008,-2.304 3.95,-3.957 L 301.289,298.926 388.316,146.43 307.441,5.33594 c -1.894,-3.30078 -5.41,-5.33984625 -9.218,-5.33984625 H 10.625 C 4.75781,-0.00390625 0,4.75 0,10.6211 c 0,1.8555 0.484375,3.6719 1.40625,5.2812 z"
         id="path38" />
    </clipPath>
    <clipPath
       clipPathUnits="userSpaceOnUse"
       id="clipPath46">
      <path
         d="M -5.44531,-29.2539 H 1524.55 V 420.754 H -5.44531 Z"
         id="path44" />
    </clipPath>
    <clipPath
       clipPathUnits="userSpaceOnUse"
       id="clipPath56">
      <path
         d="M 0,0 H 1504.9 V 408.727 H 0 Z"
         id="path54" />
    </clipPath>
    <clipPath
       clipPathUnits="userSpaceOnUse"
       id="clipPath62">
      <path
         d="m 388.297,146.41 74.594,130.633 c 2.91,5.098 9.398,6.863 14.492,3.957 1.648,-0.941 3.015,-2.309 3.961,-3.957 L 630.449,15.8945 c 2.906,-5.0976 1.133,-11.59372 -3.961,-14.49216 -1.605,-0.917965 -3.418,-1.40624625 -5.265,-1.40624625 H 478.277 c -3.808,0 -7.324,2.03906625 -9.218,5.35156625 L 388.297,146.41 Z"
         id="path60" />
    </clipPath>
    <clipPath
       clipPathUnits="userSpaceOnUse"
       id="clipPath68">
      <path
         d="M -5.44531,-29.2539 H 1524.55 V 420.754 H -5.44531 Z"
         id="path66" />
    </clipPath>
  </defs>
  <sodipodi:namedview
     id="namedview4"
     pagecolor="#ffffff"
     bordercolor="#000000"
     borderopacity="0.25"
     inkscape:showpageshadow="2"
     inkscape:pageopacity="0.0"
     inkscape:pagecheckerboard="0"
     inkscape:deskcolor="#d1d1d1" />
  <g
     id="g8"
     inkscape:groupmode="layer"
     inkscape:label="ink_ext_XXXXXX"
     transform="matrix(1.3333333,0,0,-1.3333333,0,54.493333)">
    <g
       id="g10"
       transform="scale(0.1)">
      <g
         id="g12">
        <g
           id="g14"
           clip-path="url(#clipPath18)">
          <g
             id="g20"
             clip-path="url(#clipPath24)">
            <path
               d="M 647.855,505.469 H 1654.9 V -89.2539 H 647.855 V 505.469"
               style="fill:#ffffff;fill-opacity:1;fill-rule:nonzero;stroke:none"
               id="path26" />
          </g>
        </g>
      </g>
      <g
         id="g28">
        <g
           id="g30"
           clip-path="url(#clipPath34)">
          <g
             id="g36"
             clip-path="url(#clipPath40)">
            <g
               id="g42"
               clip-path="url(#clipPath46)">
              <path
                 d="M -150,558.727 H 538.316 V -150.004 H -150 v 708.731"
                 style="fill:#ffffff;fill-opacity:1;fill-rule:nonzero;stroke:none"
                 id="path48" />
            </g>
          </g>
        </g>
      </g>
      <g
         id="g50">
        <g
           id="g52"
           clip-path="url(#clipPath56)">
          <g
             id="g58"
             clip-path="url(#clipPath62)">
            <g
               id="g64"
               clip-path="url(#clipPath68)">
              <path
                 d="M 238.297,432.398 H 781.848 V -150.004 H 238.297 v 582.402"
                 style="fill:#ffffff;fill-opacity:1;fill-rule:nonzero;stroke:none"
                 id="path70" />
            </g>
          </g>
        </g>
      </g>
    </g>
  </g>
</svg>
