<?xml version="1.0" encoding="UTF-8" standalone="no"?>
<!-- Created with Inkscape (http://www.inkscape.org/) -->

<svg
   version="1.1"
   id="svg2"
   width="1160.4933"
   height="758.40002"
   viewBox="0 0 1160.4933 758.40002"
   sodipodi:docname="white-logomark-vertical.eps"
   xmlns:inkscape="http://www.inkscape.org/namespaces/inkscape"
   xmlns:sodipodi="http://sodipodi.sourceforge.net/DTD/sodipodi-0.dtd"
   xmlns="http://www.w3.org/2000/svg"
   xmlns:svg="http://www.w3.org/2000/svg">
  <defs
     id="defs6">
    <clipPath
       clipPathUnits="userSpaceOnUse"
       id="clipPath18">
      <path
         d="m 2715.46,669.121 c -20.84,0 -44.12,-12 -69.84,-36 -25.72,-24 -49.82,-55.84 -72.29,-95.523 -22.46,-39.676 -39.56,-81.907 -51.27,-126.719 61.86,21.121 106.14,41.601 132.84,61.449 24.09,18.551 42.81,41.113 56.16,67.672 13.35,26.559 20.02,55.199 20.02,85.918 0,17.281 -1.29,28.801 -3.9,34.562 -2.6,5.758 -6.51,8.641 -11.72,8.641 z m 93.77,-45.113 c 0,-51.848 -29.63,-97.289 -88.89,-136.328 -59.26,-39.039 -126.98,-70.719 -203.17,-95.039 -7.16,-32 -10.74,-63.039 -10.74,-93.121 0,-61.442 22.46,-92.161 67.39,-92.161 56,0 106.15,32 150.43,96 l 15.63,-7.668 c -20.84,-35.211 -49.01,-65.441 -84.49,-90.73 -35.49,-25.281 -72.77,-37.922 -111.85,-37.922 -40.37,0 -71.95,11.531 -94.75,34.563 -22.78,23.039 -34.18,56.636 -34.18,100.796 0,48.653 14.49,103.52 43.47,164.641 28.97,61.129 68.21,113.121 117.7,156 49.49,42.879 103.21,64.32 161.17,64.32 20.83,0 38.09,-5.429 51.77,-16.32 13.67,-10.879 20.51,-26.559 20.51,-47.031 z M 2341.84,336 2317.42,265.918 c -23.45,-65.918 -62.84,-98.879 -118.19,-98.879 -45.59,0 -68.38,19.84 -68.38,59.52 0,19.203 5.21,44.16 15.63,74.882 L 2239.28,576 c 6.51,17.918 9.76,33.918 9.76,48.008 0,21.754 -10.42,32.633 -31.25,32.633 -24.1,0 -49.98,-14.883 -77.66,-44.641 -27.67,-29.762 -55.51,-71.52 -83.51,-125.281 -28,-53.758 -54.05,-116.16 -78.14,-187.199 l -35.17,-119.04 h -84.98 l 193.4,640.321 c 1.04,3.469 4.52,14.949 10.45,34.449 1.39,4.551 6.42,20.918 15.11,49.121 l 90.74,28.547 c -0.62,-2.387 -1.31,-4.867 -2.08,-7.449 -20.62,-69.301 -66.18,-221.938 -136.68,-457.949 35.16,78.082 70.32,134.238 105.49,168.48 35.17,34.25 73.58,51.359 115.26,51.359 52.75,0 79.12,-24.32 79.12,-72.949 0,-20.492 -4.88,-44.492 -14.65,-72.012 l -94.75,-280.32 c -5.21,-15.359 -7.82,-27.519 -7.82,-36.476 0,-15.352 7.82,-23.043 23.45,-23.043 13.02,0 25.56,7.199 37.6,21.601 12.05,14.41 24.59,39.852 37.61,76.32 l 12.7,35.52 h 18.56 z M 1644.9,262.078 c -1.95,-7.668 -2.93,-14.719 -2.93,-21.117 0,-12.793 3.91,-22.391 11.73,-28.801 7.81,-6.398 17.9,-9.601 30.27,-9.601 16.28,0 31.43,6.882 45.42,20.64 14,13.762 27.84,38.879 41.52,75.371 l 13.67,37.43 h 18.56 l -20.51,-60.48 c -13.67,-39.68 -31.42,-67.68 -53.24,-84 -21.81,-16.321 -48.67,-24.481 -80.58,-24.481 -29.3,0 -51.12,7.039 -65.45,21.129 -14.32,14.07 -21.48,33.59 -21.48,58.551 0,16.64 2.92,34.883 8.79,54.722 l 103.54,353.278 h -87.92 l 4.89,19.199 h 87.91 c 17.89,60.543 29.62,100.242 35.16,119.09 l 91.56,27.781 c -5.69,-19.5 -19.6,-68.449 -41.74,-146.871 h 128.94 l -2.93,-19.199 H 1758.21 L 1644.9,262.078 Z m -420.01,425.281 c 17.58,0 31.58,-5.121 42,-15.359 10.41,-10.242 15.62,-23.359 15.62,-39.359 0,-19.2 -6.83,-35.52 -20.51,-48.961 -13.67,-13.43 -29.63,-20.16 -47.86,-20.16 -11.72,0 -21.16,3.039 -28.32,9.121 -7.17,6.078 -10.75,14.558 -10.75,25.437 0,14.723 3.91,27.203 11.72,37.442 7.81,10.242 18.56,18.242 32.23,24 -2.6,2.558 -6.18,3.839 -10.74,3.839 -35.16,0 -73.42,-37.269 -114.77,-111.839 -41.35,-74.559 -80.26,-172.95 -116.729,-295.2 l -19.535,-75.84 h -84.98 L 989.48,592.328 c 4.559,14.07 6.836,26.551 6.836,37.434 0,14.718 -6.836,22.078 -20.511,22.078 -14.325,0 -27.508,-7.52 -39.559,-22.559 -12.047,-15.043 -24.254,-40.16 -36.629,-75.363 l -12.699,-35.52 h -18.559 l 24.418,70.082 c 23.446,65.93 62.844,98.879 118.193,98.879 37.12,0 55.68,-18.558 55.68,-55.679 0,-17.918 -4.56,-44.16 -13.68,-78.719 L 1021.71,432 c 35.17,92.809 68.22,158.559 99.15,197.281 30.93,38.719 65.6,58.078 104.03,58.078 z M 647.117,668.168 c -33.211,0 -64.629,-20.809 -94.258,-62.406 -29.629,-41.602 -53.394,-93.602 -71.304,-156.004 -17.907,-62.399 -26.864,-122.399 -26.864,-180 0,-28.797 4.563,-49.906 13.676,-63.36 9.117,-13.437 23.117,-20.16 42.004,-20.16 33.207,0 64.629,20.801 94.258,62.403 29.629,41.609 53.398,93.597 71.305,156 17.91,62.398 26.863,122.398 26.863,180 0,28.8 -4.559,49.918 -13.676,63.359 -9.117,13.441 -23.113,20.168 -42.004,20.168 z M 370.688,317.77 c 0,50.55 11.398,104.789 34.191,162.71 22.789,57.918 55.672,106.879 98.652,146.879 42.977,40 92.797,60 149.449,60 41.676,0 74.399,-12.64 98.168,-37.918 23.77,-25.281 35.649,-62.882 35.649,-112.8 0,-50.551 -11.391,-104.801 -34.184,-162.723 C 729.82,316 696.934,267.039 653.953,227.039 c -42.976,-40 -92.793,-60 -149.445,-60 -41.676,0 -74.395,12.641 -98.164,37.922 -23.77,25.289 -35.656,62.879 -35.656,112.809 z m 34.679,613.429 c 28.653,0 51.278,-6.39 67.887,-19.199 16.605,-12.801 24.906,-29.121 24.906,-48.961 0,-16.641 -6.347,-31.84 -19.051,-45.598 -12.691,-13.761 -28.164,-20.64 -46.394,-20.64 -12.371,0 -22.141,2.879 -29.301,8.64 -7.164,5.758 -10.422,13.758 -9.769,24 0,15.368 5.046,28.637 15.14,39.84 10.094,11.199 23.602,19.36 40.535,24.481 0,5.758 -4.394,11.039 -13.187,15.84 -8.789,4.808 -19.371,7.199 -31.742,7.199 -19.536,0 -38.422,-8.321 -56.657,-24.961 C 334.063,879.68 322.668,860.32 313.551,833.762 304.43,807.199 293.035,768 279.359,716.16 l -10.746,-41.281 v -0.961 H 383.879 L 378.02,654.719 H 262.754 L 87.9102,13.4414 C 52.7422,12.1602 23.4414,7.67969 0,0 L 177.773,654.719 H 89.8633 l 5.8594,19.199 h 87.9103 v 0.961 c 14.332,52.48 29.144,95.199 44.449,128.16 15.301,32.961 33.695,59.68 55.184,80.16 14.976,14.719 33.375,26.403 55.191,35.039 21.813,8.641 44.117,12.961 66.91,12.961 z"
         clip-rule="evenodd"
         id="path16" />
    </clipPath>
    <clipPath
       clipPathUnits="userSpaceOnUse"
       id="clipPath24">
      <path
         d="M -1074.62,-799.051 H 9785.37 V 6490.95 H -1074.62 Z"
         id="path22" />
    </clipPath>
    <clipPath
       clipPathUnits="userSpaceOnUse"
       id="clipPath34">
      <path
         d="m 8571.81,2357.36 c -18.31,26.1 -42.81,45.23 -73.49,57.38 -30.67,12.15 -62.96,18.22 -96.84,18.22 -20.14,0 -39.6,-2.25 -58.37,-6.75 -18.77,-4.5 -35.72,-11.7 -50.82,-21.6 -15.12,-9.9 -27.25,-22.72 -36.41,-38.48 -9.15,-15.74 -13.73,-34.42 -13.73,-56.02 0,-32.39 11.44,-57.15 34.33,-74.25 22.9,-17.1 51.28,-31.94 85.17,-44.55 33.88,-12.6 70.97,-24.75 111.26,-36.45 40.29,-11.69 77.38,-27.9 111.26,-48.6 33.89,-20.7 62.28,-48.14 85.17,-82.34 22.89,-34.21 34.33,-79.66 34.33,-136.36 0,-51.3 -9.61,-96.07 -28.84,-134.33 -19.23,-38.24 -45.1,-69.97 -77.61,-95.17 -32.5,-25.2 -70.28,-44.09 -113.32,-56.7 -43.04,-12.6 -88.37,-18.9 -135.99,-18.9 -60.44,0 -118.58,9.9 -174.44,29.7 -55.86,19.8 -103.94,53.11 -144.23,99.9 l 130.49,124.2 c 21.06,-31.49 48.77,-56.02 83.1,-73.57 34.34,-17.55 70.74,-26.33 109.2,-26.33 20.15,0 40.29,2.7 60.44,8.1 20.15,5.4 38.46,13.5 54.94,24.3 16.49,10.8 29.77,24.53 39.84,41.17 10.07,16.65 15.11,35.78 15.11,57.39 0,35.09 -11.44,62.1 -34.34,80.99 -22.89,18.9 -51.28,34.88 -85.17,47.93 -33.88,13.05 -70.97,25.42 -111.26,37.12 -40.29,11.7 -77.37,27.68 -111.26,47.93 -33.87,20.24 -62.26,47.25 -85.16,81 -22.89,33.75 -34.34,78.97 -34.34,135.67 0,49.5 10.3,92.26 30.91,128.25 20.6,36 47.62,65.93 81.04,89.78 33.42,23.85 71.65,41.62 114.69,53.32 43.05,11.71 87,17.56 131.87,17.56 51.29,0 100.96,-7.66 149.04,-22.95 48.08,-15.31 91.34,-40.51 129.8,-75.61 l -126.37,-130.95 z m -1407.48,205.2 h 644.21 v -153.9 H 7337.4 v -234.9 h 446.42 v -153.9 H 7337.4 v -259.19 h 495.87 v -153.91 h -668.94 v 955.8 z m -364.93,-224.1 c -35.71,37.8 -70.28,63.01 -103.7,75.6 -33.42,12.6 -67.08,18.9 -100.96,18.9 -50.36,0 -95.92,-8.77 -136.67,-26.32 -40.76,-17.56 -75.78,-41.85 -105.08,-72.9 -29.31,-31.05 -51.97,-67.27 -68,-108.68 -16.03,-41.4 -24.03,-85.95 -24.03,-133.64 0,-51.31 8,-98.56 24.03,-141.76 16.03,-43.19 38.69,-80.55 68,-112.05 29.3,-31.5 64.32,-56.25 105.08,-74.25 40.75,-18 86.31,-27 136.67,-27 39.38,0 77.6,9.23 114.69,27.67 37.09,18.46 71.66,47.93 103.71,88.43 l 142.86,-99.9 c -43.96,-59.39 -97.53,-102.6 -160.72,-129.6 -63.18,-27 -130.49,-40.5 -201.91,-40.5 -75.1,0 -144,11.93 -206.73,35.77 -62.73,23.86 -116.76,57.61 -162.09,101.25 -45.32,43.66 -80.81,96.08 -106.45,157.28 -25.64,61.2 -38.46,129.15 -38.46,203.86 0,76.49 12.82,146.02 38.46,208.57 25.64,62.55 61.13,115.87 106.45,159.97 45.33,44.1 99.36,78.08 162.09,101.93 62.73,23.85 131.63,35.78 206.73,35.78 65.93,0 127.05,-11.48 183.37,-34.44 56.32,-22.95 108.75,-61.86 157.28,-116.76 l -134.62,-97.21 z m -1316.82,-180.9 c 24.72,0 49.45,1.12 74.18,3.38 24.72,2.25 47.38,7.65 67.99,16.2 20.6,8.55 37.31,21.6 50.13,39.15 12.83,17.55 19.23,42.07 19.23,73.57 0,27.91 -5.95,50.41 -17.85,67.5 -11.9,17.1 -27.47,29.93 -46.7,38.48 -19.24,8.55 -40.53,14.17 -63.88,16.88 -23.35,2.69 -46.01,4.04 -67.99,4.04 h -149.72 v -259.2 h 134.61 z m -307.69,405 h 337.91 c 46.7,0 91.8,-4.27 135.3,-12.82 43.5,-8.56 82.18,-23.18 116.07,-43.88 33.88,-20.69 60.9,-48.59 81.04,-83.7 20.15,-35.1 30.22,-79.65 30.22,-133.64 0,-69.31 -19.46,-127.36 -58.38,-174.15 -38.92,-46.81 -94.55,-75.16 -166.89,-85.06 l 258.24,-422.55 h -208.79 l -225.27,405 h -126.37 v -405 h -173.08 v 955.8 z m -304.48,-604.79 c 0,-57.6 -10.07,-109.58 -30.21,-155.93 -20.15,-46.35 -47.62,-85.73 -82.43,-118.13 -34.79,-32.4 -76,-57.37 -123.62,-74.92 -47.62,-17.55 -99.36,-26.33 -155.21,-26.33 -55.86,0 -107.6,8.78 -155.22,26.33 -47.62,17.55 -89.06,42.52 -124.31,74.92 -35.26,32.4 -62.73,71.78 -82.42,118.13 -19.69,46.35 -29.53,98.33 -29.53,155.93 v 604.79 h 173.07 v -599.39 c 0,-23.4 3.66,-47.93 10.99,-73.58 7.33,-25.65 19.46,-49.28 36.4,-70.88 16.94,-21.6 39.38,-39.37 67.3,-53.32 27.93,-13.95 62.5,-20.93 103.72,-20.93 41.21,0 75.78,6.98 103.71,20.93 27.93,13.95 50.36,31.72 67.3,53.32 16.94,21.6 29.07,45.23 36.4,70.88 7.32,25.65 10.98,50.18 10.98,73.58 v 599.39 h 173.08 v -604.79 z m -1885.49,133.65 c 0,-51.31 8.01,-98.56 24.04,-141.76 16.02,-43.19 38.68,-80.55 67.99,-112.05 29.3,-31.5 64.32,-56.25 105.08,-74.25 40.75,-18 86.3,-27 136.67,-27 50.37,0 96.15,9 137.36,27 41.21,18 76.46,42.75 105.77,74.25 29.3,31.5 51.96,68.86 67.99,112.05 16.02,43.2 24.04,90.45 24.04,141.76 0,47.69 -8.02,92.24 -24.04,133.64 -16.03,41.41 -38.69,77.63 -67.99,108.68 -29.31,31.05 -64.56,55.34 -105.77,72.9 -41.21,17.55 -86.99,26.32 -137.36,26.32 -50.37,0 -95.92,-8.77 -136.67,-26.32 -40.76,-17.56 -75.78,-41.85 -105.08,-72.9 -29.31,-31.05 -51.97,-67.27 -67.99,-108.68 -16.03,-41.4 -24.04,-85.95 -24.04,-133.64 z m -181.32,-10.8 c 0,76.49 12.82,146.02 38.46,208.57 25.64,62.55 61.12,115.87 106.46,159.97 45.32,44.1 99.35,78.08 162.08,101.93 62.73,23.85 131.64,35.78 206.72,35.78 76.01,0.9 145.61,-10.13 208.79,-33.08 63.19,-22.95 117.67,-56.47 163.46,-100.58 45.79,-44.1 81.5,-97.19 107.14,-159.29 25.64,-62.11 38.47,-131.41 38.47,-207.9 0,-74.71 -12.83,-142.66 -38.47,-203.86 -25.64,-61.2 -61.35,-113.85 -107.14,-157.95 -45.79,-44.1 -100.27,-78.52 -163.46,-103.27 -63.18,-24.76 -132.78,-37.58 -208.79,-38.48 -75.08,0 -143.99,11.93 -206.72,35.77 -62.73,23.86 -116.76,57.61 -162.08,101.25 -45.34,43.66 -80.82,96.08 -106.46,157.28 -25.64,61.2 -38.46,129.15 -38.46,203.86 z m -351.18,276.74 c -18.32,26.1 -42.82,45.23 -73.49,57.38 -30.68,12.15 -62.96,18.22 -96.84,18.22 -20.15,0 -39.6,-2.25 -58.38,-6.75 -18.77,-4.5 -35.71,-11.7 -50.82,-21.6 -15.11,-9.9 -27.25,-22.72 -36.4,-38.48 -9.16,-15.74 -13.74,-34.42 -13.74,-56.02 0,-32.39 11.45,-57.15 34.34,-74.25 22.9,-17.1 51.28,-31.94 85.17,-44.55 33.88,-12.6 70.96,-24.75 111.26,-36.45 40.29,-11.69 77.37,-27.9 111.26,-48.6 33.88,-20.7 62.27,-48.14 85.16,-82.34 22.9,-34.21 34.34,-79.66 34.34,-136.36 0,-51.3 -9.61,-96.07 -28.85,-134.33 -19.22,-38.24 -45.09,-69.97 -77.6,-95.17 -32.51,-25.2 -70.29,-44.09 -113.32,-56.7 -43.05,-12.6 -88.37,-18.9 -135.99,-18.9 -60.44,0 -118.59,9.9 -174.45,29.7 -55.86,19.8 -103.93,53.11 -144.23,99.9 l 130.5,124.2 c 21.06,-31.49 48.76,-56.02 83.1,-73.57 34.34,-17.55 70.74,-26.33 109.2,-26.33 20.14,0 40.29,2.7 60.44,8.1 20.14,5.4 38.46,13.5 54.94,24.3 16.49,10.8 29.76,24.53 39.84,41.17 10.07,16.65 15.1,35.78 15.1,57.39 0,35.09 -11.44,62.1 -34.33,80.99 -22.9,18.9 -51.29,34.88 -85.17,47.93 -33.88,13.05 -70.96,25.42 -111.26,37.12 -40.29,11.7 -77.38,27.68 -111.26,47.93 -33.88,20.24 -62.27,47.25 -85.16,81 -22.9,33.75 -34.34,78.97 -34.34,135.67 0,49.5 10.3,92.26 30.9,128.25 20.6,36 47.62,65.93 81.04,89.78 33.43,23.85 71.66,41.62 114.7,53.32 43.04,11.71 86.99,17.56 131.87,17.56 51.28,0 100.95,-7.66 149.03,-22.95 48.08,-15.31 91.35,-40.51 129.81,-75.61 l -126.37,-130.95 z m -1407.49,205.2 h 644.22 v -153.9 h -471.14 v -234.9 h 446.41 v -153.9 h -446.41 v -259.19 h 495.87 v -153.91 h -668.95 v 955.8 z m -649.254,-405 c 24.722,0 49.453,1.12 74.179,3.38 24.719,2.25 47.387,7.65 67.989,16.2 20.601,8.55 37.316,21.6 50.136,39.15 12.821,17.55 19.231,42.07 19.231,73.57 0,27.91 -5.949,50.41 -17.856,67.5 -11.906,17.1 -27.468,29.93 -46.703,38.48 -19.23,8.55 -40.523,14.17 -63.875,16.88 -23.347,2.69 -46.011,4.04 -67.992,4.04 H 261.063 v -259.2 h 134.613 z m -307.6877,405 H 425.895 c 46.703,0 91.8,-4.27 135.3,-12.82 43.496,-8.56 82.188,-23.18 116.071,-43.88 33.882,-20.69 60.894,-48.59 81.039,-83.7 20.148,-35.1 30.218,-79.65 30.218,-133.64 0,-69.31 -19.457,-127.36 -58.378,-174.15 -38.915,-46.81 -94.543,-75.16 -166.887,-85.06 L 821.492,1606.76 H 612.703 l -225.265,405 H 261.063 v -405 H 87.9883 v 955.8 z"
         clip-rule="evenodd"
         id="path32" />
    </clipPath>
    <clipPath
       clipPathUnits="userSpaceOnUse"
       id="clipPath40">
      <path
         d="M -1074.62,-799.051 H 9785.37 V 6490.95 H -1074.62 Z"
         id="path38" />
    </clipPath>
    <clipPath
       clipPathUnits="userSpaceOnUse"
       id="clipPath50">
      <path
         d="m 8024.04,1122.56 h 644.23 V 968.66 H 8197.12 V 733.762 h 446.42 V 579.859 H 8197.12 V 320.668 h 495.87 V 166.758 H 8024.04 V 1122.56 Z M 7374.79,717.559 c 24.73,0 49.45,1.121 74.17,3.382 24.73,2.25 47.4,7.649 68,16.2 20.61,8.55 37.32,21.597 50.14,39.148 12.82,17.551 19.23,42.07 19.23,73.57 0,27.911 -5.96,50.411 -17.86,67.5 -11.91,17.102 -27.47,29.93 -46.7,38.481 -19.23,8.551 -40.52,14.172 -63.87,16.879 -23.36,2.691 -46.02,4.039 -68,4.039 H 7240.18 V 717.559 h 134.61 z m -307.68,405.001 h 337.9 c 46.71,0 91.81,-4.27 135.3,-12.82 43.5,-8.56 82.19,-23.18 116.07,-43.88 33.88,-20.69 60.9,-48.59 81.04,-83.7 20.15,-35.101 30.23,-79.648 30.23,-133.64 0,-69.309 -19.47,-127.36 -58.38,-174.149 -38.93,-46.812 -94.55,-75.16 -166.9,-85.062 l 258.24,-422.551 h -208.78 l -225.28,405 h -126.37 v -405 H 7067.11 V 1122.56 Z M 6762.63,517.77 c 0,-57.602 -10.08,-109.579 -30.23,-155.93 -20.14,-46.352 -47.61,-85.731 -82.41,-118.129 -34.79,-32.402 -76.01,-57.371 -123.62,-74.922 -47.62,-17.551 -99.36,-26.328 -155.22,-26.328 -55.87,0 -107.61,8.777 -155.22,26.328 -47.62,17.551 -89.05,42.52 -124.31,74.922 -35.25,32.398 -62.72,71.777 -82.42,118.129 -19.69,46.351 -29.53,98.328 -29.53,155.93 v 604.79 h 173.07 V 523.168 c 0,-23.398 3.67,-47.93 10.99,-73.578 7.33,-25.649 19.46,-49.281 36.41,-70.879 16.94,-21.602 39.37,-39.371 67.3,-53.32 27.93,-13.95 62.5,-20.93 103.71,-20.93 41.2,0 75.77,6.98 103.7,20.93 27.93,13.949 50.37,31.718 67.31,53.32 16.94,21.598 29.08,45.23 36.4,70.879 7.33,25.648 10.99,50.18 10.99,73.578 v 599.392 h 173.08 V 517.77 Z M 5302.94,968.66 h -298.07 v 153.9 h 769.22 V 968.66 H 5476.02 V 166.758 H 5302.94 V 968.66 Z M 4799.29,517.77 c 0,-57.602 -10.07,-109.579 -30.22,-155.93 -20.14,-46.352 -47.61,-85.731 -82.42,-118.129 -34.79,-32.402 -76.01,-57.371 -123.62,-74.922 -47.62,-17.551 -99.36,-26.328 -155.22,-26.328 -55.86,0 -107.6,8.777 -155.21,26.328 -47.62,17.551 -89.06,42.52 -124.31,74.922 -35.26,32.398 -62.73,71.777 -82.42,118.129 -19.69,46.351 -29.53,98.328 -29.53,155.93 v 604.79 h 173.07 V 523.168 c 0,-23.398 3.67,-47.93 10.99,-73.578 7.32,-25.649 19.46,-49.281 36.4,-70.879 16.94,-21.602 39.38,-39.371 67.31,-53.32 27.93,-13.95 62.49,-20.93 103.7,-20.93 41.21,0 75.78,6.98 103.71,20.93 27.93,13.949 50.36,31.718 67.31,53.32 16.94,21.598 29.07,45.23 36.39,70.879 7.33,25.648 11,50.18 11,73.578 v 599.392 h 173.07 V 517.77 Z m -1658.85,604.79 h 627.73 V 968.66 H 3313.51 V 717.559 h 428.57 V 563.66 H 3313.51 V 166.758 h -173.07 v 955.802 z"
         clip-rule="evenodd"
         id="path48" />
    </clipPath>
    <clipPath
       clipPathUnits="userSpaceOnUse"
       id="clipPath56">
      <path
         d="M -1074.62,-799.051 H 9785.37 V 6490.95 H -1074.62 Z"
         id="path54" />
    </clipPath>
    <clipPath
       clipPathUnits="userSpaceOnUse"
       id="clipPath66">
      <path
         d="M 90.5977,3388.19 1389.35,5656.68 c 17.06,29.8 55.06,40.13 84.87,23.07 9.63,-5.52 17.61,-13.51 23.11,-23.15 l 348.94,-611.44 509.49,-892.8 -473.48,-826 c -11.09,-19.34 -31.67,-31.27 -53.96,-31.27 H 144.566 c -34.347,0 -62.1949,27.85 -62.1949,62.2 0,10.84 2.8398,21.49 8.2266,30.9 z"
         id="path64" />
    </clipPath>
    <clipPath
       clipPathUnits="userSpaceOnUse"
       id="clipPath72">
      <path
         d="M -1074.62,-799.051 H 9785.37 V 6490.95 H -1074.62 Z"
         id="path70" />
    </clipPath>
    <clipPath
       clipPathUnits="userSpaceOnUse"
       id="clipPath82">
      <path
         d="m 2355.66,4152.29 436.71,764.75 c 17.04,29.83 55.02,40.2 84.85,23.17 9.66,-5.51 17.66,-13.52 23.17,-23.17 l 872.93,-1528.92 c 17.03,-29.83 6.66,-67.81 -23.17,-84.84 -9.39,-5.36 -20.02,-8.19 -30.84,-8.19 h -836.87 c -22.3,0 -42.89,11.95 -53.97,31.3 l -472.81,825.9 z"
         id="path80" />
    </clipPath>
    <clipPath
       clipPathUnits="userSpaceOnUse"
       id="clipPath88">
      <path
         d="M -1074.62,-799.051 H 9785.37 V 6490.95 H -1074.62 Z"
         id="path86" />
    </clipPath>
  </defs>
  <sodipodi:namedview
     id="namedview4"
     pagecolor="#ffffff"
     bordercolor="#000000"
     borderopacity="0.25"
     inkscape:showpageshadow="2"
     inkscape:pageopacity="0.0"
     inkscape:pagecheckerboard="0"
     inkscape:deskcolor="#d1d1d1" />
  <g
     id="g8"
     inkscape:groupmode="layer"
     inkscape:label="ink_ext_XXXXXX"
     transform="matrix(1.3333333,0,0,-1.3333333,0,758.4)">
    <g
       id="g10"
       transform="scale(0.1)">
      <g
         id="g12">
        <g
           id="g14"
           clip-path="url(#clipPath18)">
          <g
             id="g20"
             clip-path="url(#clipPath24)">
            <path
               d="M -150,1082.92 H 2959.23 V -150 H -150 v 1232.92"
               style="fill:#ffffff;fill-opacity:1;fill-rule:nonzero;stroke:none"
               id="path26" />
          </g>
        </g>
      </g>
      <g
         id="g28">
        <g
           id="g30"
           clip-path="url(#clipPath34)">
          <g
             id="g36"
             clip-path="url(#clipPath40)">
            <path
               d="M -62.0117,2736.92 H 8853.67 V 1432.46 H -62.0117 v 1304.46"
               style="fill:#ffffff;fill-opacity:1;fill-rule:nonzero;stroke:none"
               id="path42" />
          </g>
        </g>
      </g>
      <g
         id="g44">
        <g
           id="g46"
           clip-path="url(#clipPath50)">
          <g
             id="g52"
             clip-path="url(#clipPath56)">
            <path
               d="M 2990.44,1272.56 H 8842.99 V -7.53906 H 2990.44 V 1272.56"
               style="fill:#ffffff;fill-opacity:1;fill-rule:nonzero;stroke:none"
               id="path58" />
          </g>
        </g>
      </g>
      <g
         id="g60">
        <g
           id="g62"
           clip-path="url(#clipPath66)">
          <g
             id="g68"
             clip-path="url(#clipPath72)">
            <path
               d="M -67.6289,5837.98 H 2505.76 V 3145.09 H -67.6289 v 2692.89"
               style="fill:#ffffff;fill-opacity:1;fill-rule:nonzero;stroke:none"
               id="path74" />
          </g>
        </g>
      </g>
      <g
         id="g76">
        <g
           id="g78"
           clip-path="url(#clipPath82)">
          <g
             id="g84"
             clip-path="url(#clipPath88)">
            <path
               d="M 2205.66,5098.41 H 3931.51 V 3145.09 H 2205.66 v 1953.32"
               style="fill:#ffffff;fill-opacity:1;fill-rule:nonzero;stroke:none"
               id="path90" />
          </g>
        </g>
      </g>
    </g>
  </g>
</svg>
